<svg xmlns="http://www.w3.org/2000/svg" viewBox="0 0 753.88 749.95"><defs><style>.cls-1{fill:#d5ebf7;}</style></defs><g id="Livello_2" data-name="Livello 2"><g id="Livello_1-2" data-name="Livello 1"><path class="cls-1" d="M335.23,620.09h-.08A2.72,2.72,0,0,1,333,619l-11.34-15.75-12.2,15.09a2.65,2.65,0,0,1-2.18,1,2.69,2.69,0,0,1-2.13-1.13l-13.4-18.64a2.72,2.72,0,0,1,4.41-3.17l11.32,15.75L319.7,597a2.61,2.61,0,0,1,2.19-1,2.72,2.72,0,0,1,2.12,1.13l11.34,15.75,12.21-15.09a2.71,2.71,0,1,1,4.22,3.41l-14.44,17.86A2.71,2.71,0,0,1,335.23,620.09Z"/><path class="cls-1" d="M223.89,352.27a2.64,2.64,0,0,1-1.15-.26,2.7,2.7,0,0,1-1.3-3.61l3.37-7.18a2.71,2.71,0,0,1,4.22-.91l3.33,2.84,1.86-4a2.71,2.71,0,0,1,4.22-.91l6,5.15a2.71,2.71,0,0,1-3.52,4.13l-3.33-2.84-1.86,4a2.7,2.7,0,0,1-1.88,1.5,2.66,2.66,0,0,1-2.33-.58l-3.34-2.84-1.86,4A2.7,2.7,0,0,1,223.89,352.27Z"/><path class="cls-1" d="M141.61,705.4a2.78,2.78,0,0,1-1-.18l-7.4-2.85a2.72,2.72,0,0,1,2-5.07l4.08,1.57.43-4.35a2.72,2.72,0,0,1,3.68-2.26l4.08,1.57.44-4.35a2.72,2.72,0,0,1,5.41.54l-.8,7.89a2.69,2.69,0,0,1-1.28,2,2.71,2.71,0,0,1-2.4.23l-4.08-1.58-.44,4.36a2.7,2.7,0,0,1-1.28,2A2.65,2.65,0,0,1,141.61,705.4Z"/><path class="cls-1" d="M511.83,694.32a2.74,2.74,0,0,1-2.19-1.11l-8.76-11.88a2.69,2.69,0,0,1-.42-2.36,2.73,2.73,0,0,1,1.63-1.78l10.45-4-6.65-9a2.7,2.7,0,0,1,1.2-4.14l13.77-5.31a2.72,2.72,0,1,1,1.95,5.07l-10.44,4,6.65,9a2.72,2.72,0,0,1-1.21,4.15l-10.45,4,6.65,9a2.72,2.72,0,0,1-.57,3.8A2.75,2.75,0,0,1,511.83,694.32Z"/><path class="cls-1" d="M687.76,433.51a2.73,2.73,0,0,1-1.89-.76l-5.5-5.34a2.72,2.72,0,1,1,3.78-3.9l3,2.86,2-3.6a2.71,2.71,0,0,1,4.27-.64l3,2.86,2-3.6A2.71,2.71,0,1,1,703,424l-3.7,6.72a2.71,2.71,0,0,1-4.27.64l-3-2.86-2,3.6a2.69,2.69,0,0,1-2,1.38A2.83,2.83,0,0,1,687.76,433.51Z"/><path class="cls-1" d="M58.47,298a3.18,3.18,0,0,1-.62-.07l-6.68-1.57A2.71,2.71,0,1,1,52.41,291l3.21.75-.13-3.3a2.72,2.72,0,0,1,3.33-2.75l3.23.75-.13-3.31a2.72,2.72,0,0,1,5.43-.2l.26,6.86a2.72,2.72,0,0,1-3.33,2.75l-3.22-.76.12,3.31a2.73,2.73,0,0,1-1,2.2A2.78,2.78,0,0,1,58.47,298Z"/><path class="cls-1" d="M552.1,17.65a2.71,2.71,0,0,1-1.76-.65l-8-6.81a2.71,2.71,0,0,1,3.52-4.13l5.29,4.5,2.94-6.29a2.72,2.72,0,0,1,4.22-.92l5.29,4.51,2.95-6.3a2.71,2.71,0,0,1,4.91,2.31L567,13.38a2.72,2.72,0,0,1-4.22.92L557.5,9.79l-3,6.29a2.69,2.69,0,0,1-1.88,1.51A2.76,2.76,0,0,1,552.1,17.65Z"/><path class="cls-1" d="M400.43,361.35a2.7,2.7,0,0,1-1.78-.66L393,355.84a2.73,2.73,0,0,1,.26-4.31l3.22-2.16-2.93-2.52a2.73,2.73,0,0,1-.93-2.22,2.68,2.68,0,0,1,1.2-2.09l6.17-4.13a2.71,2.71,0,1,1,3,4.51l-3.2,2.15,2.92,2.52a2.73,2.73,0,0,1,.93,2.22,2.68,2.68,0,0,1-1.2,2.09l-3.21,2.16,2.93,2.53a2.72,2.72,0,0,1,.27,3.83A2.68,2.68,0,0,1,400.43,361.35Z"/><path class="cls-1" d="M98.75,414.06a2.71,2.71,0,0,1-2.68-2.25l-2.48-14.19-13,6.14a2.72,2.72,0,0,1-3.84-2l-3.08-17.69a2.72,2.72,0,1,1,5.35-.93l2.47,14.18,13-6.14a2.7,2.7,0,0,1,3.83,2l2.49,14.2,13-6.15a2.71,2.71,0,0,1,2.31,4.91L99.9,413.8A2.72,2.72,0,0,1,98.75,414.06Z"/><path class="cls-1" d="M349.35,76a2.66,2.66,0,0,1-1.79-.68l-19.84-17.4a2.72,2.72,0,0,1-.91-2.23A2.69,2.69,0,0,1,328,53.63l19.05-12.58L329.91,26a2.7,2.7,0,0,1,.3-4.3l22-14.52a2.71,2.71,0,1,1,3,4.53l-19,12.56,17.15,15.05a2.71,2.71,0,0,1-.29,4.3L334,56.2l17.16,15.06A2.72,2.72,0,0,1,349.35,76Z"/><path class="cls-1" d="M677.74,327.61a2.64,2.64,0,0,1-.78-.12l-7.42-2.23a2.72,2.72,0,1,1,1.57-5.2l4,1.21.11-4.19a2.71,2.71,0,0,1,3.49-2.53l4,1.2.1-4.19a2.69,2.69,0,0,1,2.78-2.65,2.72,2.72,0,0,1,2.65,2.78l-.19,7.75a2.71,2.71,0,0,1-3.5,2.53l-4-1.2-.1,4.19a2.72,2.72,0,0,1-2.72,2.65Z"/><path class="cls-1" d="M288.38,338.6h-.13a2.71,2.71,0,0,1-2.11-1.17l-.58-.85-.67.79a2.75,2.75,0,0,1-2.2,1,2.71,2.71,0,0,1-2.11-1.17l-2.6-3.78a2.71,2.71,0,0,1,4.47-3.08l.58.84.66-.78a2.77,2.77,0,0,1,2.21-1,2.7,2.7,0,0,1,2.1,1.17l.59.85.66-.79a2.72,2.72,0,0,1,4.16,3.49l-3,3.52A2.7,2.7,0,0,1,288.38,338.6Z"/><path class="cls-1" d="M687.7,189a2.72,2.72,0,0,1-1.39-.38l-5.09-3.05a2.67,2.67,0,0,1-1.3-2,2.71,2.71,0,0,1,.82-2.27l1.71-1.64-2-1.22a2.72,2.72,0,0,1-.48-4.29l4.28-4.1a2.72,2.72,0,1,1,3.76,3.92l-1.71,1.64,2,1.22a2.7,2.7,0,0,1,.49,4.28l-1.72,1.65,2,1.22a2.71,2.71,0,0,1-1.4,5Z"/><path class="cls-1" d="M173.88,497.15a2.72,2.72,0,0,1-.26-5.42l1.77-.17-.63-1.67a2.69,2.69,0,0,1,.22-2.39,2.73,2.73,0,0,1,2.05-1.27l1.78-.18-.64-1.67a2.71,2.71,0,0,1,5.07-1.93l1.91,5a2.75,2.75,0,0,1-.23,2.4,2.71,2.71,0,0,1-2,1.27l-1.77.17.63,1.67a2.72,2.72,0,0,1-2.27,3.67l-5.32.52Z"/><path class="cls-1" d="M714.9,341.58a2.71,2.71,0,0,1-1.38-5.05l1-.57-.8-.78a2.71,2.71,0,0,1,.52-4.28l1-.57-.81-.79a2.72,2.72,0,0,1,3.8-3.88l3.34,3.27a2.74,2.74,0,0,1,.8,2.28,2.71,2.71,0,0,1-1.32,2l-1,.56.8.79a2.7,2.7,0,0,1-.53,4.28l-4,2.36A2.61,2.61,0,0,1,714.9,341.58Z"/><path class="cls-1" d="M462.3,423.53a2.71,2.71,0,0,1-.45-5.39l13.24-2.21-5.64-12.19a2.72,2.72,0,0,1,2-3.82l13.25-2.22-5.64-12.19a2.72,2.72,0,0,1,4.93-2.28l7.13,15.42a2.76,2.76,0,0,1-.06,2.41,2.72,2.72,0,0,1-2,1.41l-13.25,2.22,5.64,12.19a2.71,2.71,0,0,1-2,3.82l-16.75,2.79A2.42,2.42,0,0,1,462.3,423.53Z"/><path class="cls-1" d="M91.36,693.91a2.83,2.83,0,0,1-.9-.15,2.71,2.71,0,0,1-1.66-3.46l3.2-9.12-9.65-.67A2.73,2.73,0,0,1,80,676.9l3.2-9.14-9.66-.67A2.71,2.71,0,0,1,71,664.2a2.74,2.74,0,0,1,2.9-2.52l13.2.92a2.66,2.66,0,0,1,2.08,1.21,2.7,2.7,0,0,1,.3,2.39l-3.2,9.14,9.65.67A2.66,2.66,0,0,1,98,677.22a2.7,2.7,0,0,1,.3,2.39L93.92,692.1A2.7,2.7,0,0,1,91.36,693.91Z"/><path class="cls-1" d="M18.11,103.07a2.7,2.7,0,0,1-2.25-1.2l-6-8.9a2.72,2.72,0,0,1,1.38-4.09L18,86.57l-4-6a2.72,2.72,0,0,1,1.38-4.09l10.18-3.45a2.72,2.72,0,0,1,1.74,5.15l-6.81,2.3,4,6a2.72,2.72,0,0,1-1.38,4.09l-6.81,2.32,4,6a2.72,2.72,0,0,1-2.25,4.23Z"/><path class="cls-1" d="M254.25,104.33h-.08a2.7,2.7,0,0,1-2.63-2.79l.66-22a2.72,2.72,0,0,1,3.51-2.51l17.62,5.4L273.88,64a2.71,2.71,0,0,1,3.51-2.52l21,6.45a2.71,2.71,0,1,1-1.59,5.19l-17.6-5.4-.55,18.41a2.71,2.71,0,0,1-3.51,2.51l-17.62-5.4L257,101.7A2.71,2.71,0,0,1,254.25,104.33Z"/><path class="cls-1" d="M328.45,356a2.67,2.67,0,0,1-1.31-.34,2.72,2.72,0,0,1-1.07-3.69l3.11-5.64a2.72,2.72,0,0,1,4.26-.64l2.07,2,1.39-2.53a2.7,2.7,0,0,1,2-1.37,2.73,2.73,0,0,1,2.29.73l4.62,4.49A2.72,2.72,0,1,1,342,352.9l-2.06-2-1.39,2.52a2.7,2.7,0,0,1-4.26.64l-2.07-2-1.39,2.53A2.73,2.73,0,0,1,328.45,356Z"/><path class="cls-1" d="M610.39,41.19a2.65,2.65,0,0,1-1.52-.47l-5.77-3.91a2.74,2.74,0,0,1-1.18-2.1,2.68,2.68,0,0,1,1-2.21l2.59-2.22-2.82-1.91a2.71,2.71,0,0,1-.24-4.31l5.3-4.52a2.71,2.71,0,1,1,3.52,4.13l-2.59,2.21,2.82,1.91a2.71,2.71,0,0,1,.24,4.31l-2.59,2.22,2.82,1.91a2.71,2.71,0,0,1-1.53,5Z"/><path class="cls-1" d="M665,692.31a2.68,2.68,0,0,1-1.58-.51,2.71,2.71,0,0,1-.62-3.78l7.82-10.92a2.74,2.74,0,0,1,2.13-1.14,2.66,2.66,0,0,1,2.19,1l6.22,7.66,5.75-8a2.72,2.72,0,0,1,2.12-1.13,2.55,2.55,0,0,1,2.19,1l8.46,10.43a2.71,2.71,0,1,1-4.21,3.42l-6.22-7.66-5.74,8a2.74,2.74,0,0,1-2.13,1.14,2.78,2.78,0,0,1-2.19-1L673,683.15l-5.75,8A2.7,2.7,0,0,1,665,692.31Z"/><path class="cls-1" d="M536,601.33a2.71,2.71,0,0,1-1.17-5.16l3.7-1.77-2.69-3.1a2.72,2.72,0,0,1,.87-4.23l3.7-1.78-2.69-3.1a2.71,2.71,0,1,1,4.1-3.56l5,5.79a2.72,2.72,0,0,1-.88,4.22l-3.7,1.78,2.69,3.1a2.72,2.72,0,0,1-.87,4.23l-6.91,3.31A2.61,2.61,0,0,1,536,601.33Z"/><path class="cls-1" d="M253.68,688.16A2.71,2.71,0,0,1,251,685.5l-.48-23L228.4,669a2.71,2.71,0,0,1-3.49-2.54l-.5-23.06L202.3,650a2.71,2.71,0,0,1-1.54-5.2l25.52-7.58a2.71,2.71,0,0,1,3.48,2.55l.5,23,22.1-6.56a2.71,2.71,0,0,1,3.49,2.54l.55,26.6a2.71,2.71,0,0,1-2.66,2.77Z"/><path class="cls-1" d="M669.49,45.38a2.78,2.78,0,0,1-1-.18l-13-5a2.73,2.73,0,0,1-1.2-4.15l6.16-8.33L650.81,24a2.7,2.7,0,0,1-1.2-4.14l8.27-11.19a2.71,2.71,0,1,1,4.36,3.23l-6.15,8.32,9.66,3.74a2.71,2.71,0,0,1,1.63,1.77,2.74,2.74,0,0,1-.42,2.37L660.8,36.4l9.67,3.74a2.71,2.71,0,0,1-1,5.24Z"/><path class="cls-1" d="M309.5,507.43a2.7,2.7,0,0,1-1.9-.77l-5.84-5.73a2.71,2.71,0,1,1,3.8-3.87l3.3,3.23,2.24-4a2.72,2.72,0,0,1,4.27-.62l3.31,3.24,2.24-4a2.72,2.72,0,1,1,4.75,2.64l-4,7.15a2.72,2.72,0,0,1-4.27.62l-3.3-3.24-2.25,4a2.71,2.71,0,0,1-2,1.36A2.56,2.56,0,0,1,309.5,507.43Z"/><path class="cls-1" d="M360.89,554a2.73,2.73,0,0,1-1.51-.46l-19.61-13.15a2.72,2.72,0,0,1,3-4.51L359.45,547l6.35-19a2.7,2.7,0,0,1,1.7-1.71,2.74,2.74,0,0,1,2.39.31l16.67,11.16,6.37-19a2.72,2.72,0,0,1,5.15,1.73l-7.5,22.4a2.71,2.71,0,0,1-1.7,1.7,2.68,2.68,0,0,1-2.38-.31L369.82,533.1l-6.35,19a2.7,2.7,0,0,1-1.7,1.71A2.67,2.67,0,0,1,360.89,554Z"/><path class="cls-1" d="M200.57,248.93a2.72,2.72,0,0,1-1.58-.5l-5.18-3.71a2.71,2.71,0,1,1,3.16-4.41l2.28,1.63,1-2.63a2.71,2.71,0,0,1,4.13-1.27l2.28,1.63,1-2.64a2.71,2.71,0,0,1,5.09,1.88l-2.2,6a2.74,2.74,0,0,1-1.75,1.65,2.7,2.7,0,0,1-2.38-.39l-2.28-1.63-1,2.64a2.74,2.74,0,0,1-1.75,1.65A2.77,2.77,0,0,1,200.57,248.93Z"/><path class="cls-1" d="M557.69,82.62a2.71,2.71,0,0,1-2.09-4.44l7-8.49-10-4.53a2.72,2.72,0,0,1-1-4.2l7-8.5-10-4.54A2.71,2.71,0,0,1,550.83,43l13.29,6a2.72,2.72,0,0,1,1,4.2l-7,8.5,10.05,4.53a2.73,2.73,0,0,1,1,4.21l-9.3,11.22A2.7,2.7,0,0,1,557.69,82.62Z"/><path class="cls-1" d="M732.06,570.59a2.85,2.85,0,0,1-1-.17,2.73,2.73,0,0,1-1.64-1.77l-3.29-11-9.75,6.08a2.71,2.71,0,0,1-4-1.53l-4.29-14.41a2.71,2.71,0,1,1,5.2-1.55l3.28,11,9.74-6.08a2.75,2.75,0,0,1,2.4-.23,2.71,2.71,0,0,1,1.64,1.76l3.29,11,9.75-6.07a2.71,2.71,0,0,1,2.88,4.6l-12.78,8A2.7,2.7,0,0,1,732.06,570.59Z"/><path class="cls-1" d="M431.21,296.19a2.92,2.92,0,0,1-.92-.16l-5-1.82a2.71,2.71,0,1,1,1.84-5.1l1.69.61.14-1.8a2.72,2.72,0,0,1,3.62-2.35l1.71.61.14-1.8a2.71,2.71,0,1,1,5.41.42l-.42,5.35a2.7,2.7,0,0,1-3.62,2.34l-1.7-.61-.14,1.8a2.72,2.72,0,0,1-2.71,2.51Z"/><path class="cls-1" d="M689.69,747.1a2.71,2.71,0,0,1-1.05-5.22l1.81-.75-1.2-1.55a2.71,2.71,0,0,1-.49-2.36,2.74,2.74,0,0,1,1.58-1.82l1.82-.75L691,733.09a2.71,2.71,0,0,1,4.28-3.34l3.4,4.36a2.73,2.73,0,0,1-1.1,4.18l-1.82.75,1.21,1.55a2.71,2.71,0,0,1,.49,2.36,2.74,2.74,0,0,1-1.58,1.82l-5.1,2.12A2.55,2.55,0,0,1,689.69,747.1Z"/><path class="cls-1" d="M259.85,293.46a2.62,2.62,0,0,1-1.06-.22l-13.27-5.66a2.71,2.71,0,0,1-1.07-4.18l6.75-8.52-10-4.26a2.72,2.72,0,0,1-1.57-1.83,2.69,2.69,0,0,1,.51-2.35l9-11.29a2.71,2.71,0,1,1,4.25,3.37l-6.75,8.5,10,4.26a2.71,2.71,0,0,1,1.07,4.18L250.92,284l10,4.27a2.71,2.71,0,0,1-1.06,5.21Z"/><path class="cls-1" d="M709.28,148.43a2.77,2.77,0,0,1-1.15-.25l-6.57-3.06a2.71,2.71,0,0,1-.93-4.21l2.39-2.82-3.35-1.56a2.7,2.7,0,0,1-.93-4.21l4.69-5.53a2.71,2.71,0,1,1,4.14,3.51l-2.38,2.81,3.34,1.55a2.72,2.72,0,0,1,.93,4.22l-2.39,2.82,3.35,1.56a2.71,2.71,0,0,1-1.14,5.17Z"/><path class="cls-1" d="M293.69,397.79a2.71,2.71,0,0,1-2.1-4.43l2.6-3.19-3.77-1.66a2.72,2.72,0,0,1-1-4.2l2.6-3.2-3.77-1.66a2.72,2.72,0,1,1,2.19-5l7,3.1a2.72,2.72,0,0,1,1,4.2l-2.6,3.2,3.77,1.66a2.72,2.72,0,0,1,1,4.2l-4.85,6A2.71,2.71,0,0,1,293.69,397.79Z"/><path class="cls-1" d="M45.09,237.08a2.71,2.71,0,0,1-2.71-2.68l-.16-13.87-13.34,3.83a2.68,2.68,0,0,1-2.37-.43,2.71,2.71,0,0,1-1.09-2.14l-.17-13.89-13.34,3.83a2.72,2.72,0,0,1-1.5-5.22l16.76-4.8a2.71,2.71,0,0,1,3.46,2.57l.17,13.88,13.34-3.83a2.72,2.72,0,0,1,3.47,2.58l.2,17.42a2.73,2.73,0,0,1-2.69,2.75Z"/><path class="cls-1" d="M12.9,279.6a2.69,2.69,0,0,1-.4,0l-5.25-.77A2.71,2.71,0,0,1,5.16,275l.7-1.61-1.73-.25A2.71,2.71,0,0,1,2,269.39l2.13-4.85a2.71,2.71,0,1,1,5,2.18l-.7,1.59,1.73.26a2.71,2.71,0,0,1,2.09,3.77l-.7,1.61,1.73.25a2.71,2.71,0,0,1-.39,5.4Z"/><path class="cls-1" d="M347.81,411.39a2.82,2.82,0,0,1-1-.2l-14.85-6.07a2.72,2.72,0,1,1,2.05-5l11.56,4.73,1.49-12.4a2.71,2.71,0,0,1,3.72-2.19L362.33,395l1.5-12.41a2.71,2.71,0,1,1,5.39.65l-1.93,15.94a2.72,2.72,0,0,1-3.72,2.19L352,396.6,350.5,409a2.72,2.72,0,0,1-1.32,2A2.79,2.79,0,0,1,347.81,411.39Z"/><path class="cls-1" d="M740,258.07a2.67,2.67,0,0,1-1.76-.65L718.94,241a2.72,2.72,0,0,1,.24-4.31l18-12.23-16.54-14.12a2.71,2.71,0,0,1,.24-4.31l20.94-14.2a2.72,2.72,0,1,1,3,4.5l-18,12.19,16.54,14.13a2.71,2.71,0,0,1-.24,4.31l-18,12.22,16.53,14.13a2.72,2.72,0,0,1-1.76,4.78Z"/><path class="cls-1" d="M745.8,355.92a2.71,2.71,0,0,1-2.17-1.09l-2.79-3.73A2.71,2.71,0,0,1,742,347l1-.4-.66-.89a2.71,2.71,0,0,1,1.18-4.15l4.34-1.7a2.71,2.71,0,1,1,2,5.05l-1,.4.66.88a2.71,2.71,0,0,1-1.18,4.15l-1,.41.66.88a2.71,2.71,0,0,1-.54,3.8A2.75,2.75,0,0,1,745.8,355.92Z"/><path class="cls-1" d="M363.48,749.27a2.71,2.71,0,0,1-1.93-.81l-7.83-8a2.72,2.72,0,1,1,3.88-3.8l5.32,5.42,3.82-6.58A2.71,2.71,0,0,1,371,735l5.34,5.43,3.82-6.58a2.72,2.72,0,1,1,4.7,2.72l-5.61,9.66a2.72,2.72,0,0,1-4.29.54l-5.33-5.42-3.82,6.57a2.69,2.69,0,0,1-2,1.33A1.94,1.94,0,0,1,363.48,749.27Z"/><path class="cls-1" d="M407.36,16.7a2.7,2.7,0,0,1-2.27-1.22l-.83-1.26-1,1.13A2.72,2.72,0,0,1,399,15l-.83-1.26-1,1.13a2.71,2.71,0,0,1-4.06-3.6l3.35-3.79a2.77,2.77,0,0,1,2.23-.91,2.71,2.71,0,0,1,2.07,1.21l.83,1.27,1-1.13a2.7,2.7,0,0,1,4.3.3l2.78,4.24a2.71,2.71,0,0,1-.79,3.76A2.67,2.67,0,0,1,407.36,16.7Z"/><path class="cls-1" d="M560.57,325.35a2.72,2.72,0,0,1-2-4.5l6.89-7.88L556,308.41a2.71,2.71,0,0,1-.86-4.23l6.89-7.89-9.43-4.57a2.72,2.72,0,0,1,2.37-4.89L567.59,293a2.71,2.71,0,0,1,.86,4.23l-6.89,7.89,9.42,4.56a2.71,2.71,0,0,1,.86,4.23l-9.23,10.56A2.73,2.73,0,0,1,560.57,325.35Z"/><path class="cls-1" d="M148.32,383a2.71,2.71,0,0,1-.2-5.42l13.87-1-4.67-13.11a2.71,2.71,0,0,1,2.35-3.62l13.89-1.05-4.67-13.12a2.71,2.71,0,1,1,5.11-1.82l5.87,16.47a2.72,2.72,0,0,1-2.36,3.62l-13.88,1,4.67,13.12a2.7,2.7,0,0,1-2.35,3.61L148.52,383Z"/><path class="cls-1" d="M53.68,169.85a2.71,2.71,0,0,1-1.43-5l12.54-7.71L54,147.08a2.73,2.73,0,0,1,.43-4.3L67,135.06,56.25,125A2.71,2.71,0,1,1,60,121l13.35,12.49a2.71,2.71,0,0,1-.43,4.29l-12.54,7.72,10.75,10.05a2.69,2.69,0,0,1,.85,2.25,2.72,2.72,0,0,1-1.28,2L55.1,169.45A2.76,2.76,0,0,1,53.68,169.85Z"/><path class="cls-1" d="M293.06,19.29l-.39,0a2.73,2.73,0,0,1-2-1.37l-1.5-2.7L287,17.35a2.66,2.66,0,0,1-2.29.75,2.7,2.7,0,0,1-2-1.37l-3.22-5.81a2.71,2.71,0,0,1,4.75-2.63L285.73,11l2.21-2.15a2.68,2.68,0,0,1,2.29-.75,2.73,2.73,0,0,1,2,1.37l1.5,2.7L295.92,10a2.72,2.72,0,0,1,3.79,3.89L295,18.52A2.7,2.7,0,0,1,293.06,19.29Z"/><path class="cls-1" d="M158.23,746a2.72,2.72,0,0,1-2.28-4.18l5.49-8.55a2.71,2.71,0,0,1,4.3-.35l4.42,4.9,3.57-5.56a2.73,2.73,0,0,1,4.3-.35l6.79,7.56a2.72,2.72,0,0,1-4,3.63l-4.41-4.91-3.56,5.56a2.73,2.73,0,0,1-2.06,1.24,2.66,2.66,0,0,1-2.24-.89l-4.42-4.91-3.57,5.56A2.72,2.72,0,0,1,158.23,746Z"/><path class="cls-1" d="M742.35,747.29a2.68,2.68,0,0,1-1.56-.5l-4.51-3.17a2.69,2.69,0,0,1-1.15-2.11,2.73,2.73,0,0,1,1-2.2l1.51-1.25-1.6-1.12a2.71,2.71,0,0,1-.17-4.31l4.25-3.51a2.71,2.71,0,1,1,3.45,4.18l-1.5,1.24,1.6,1.13a2.71,2.71,0,0,1,.17,4.31l-1.51,1.25,1.6,1.12a2.7,2.7,0,0,1,.66,3.78A2.67,2.67,0,0,1,742.35,747.29Z"/><path class="cls-1" d="M659.23,554.88l-.25,0-17.8-1.64a2.72,2.72,0,0,1-2.45-3,2.69,2.69,0,0,1,2.95-2.45l14.26,1.32L653.43,535a2.72,2.72,0,0,1,.68-2.31,2.65,2.65,0,0,1,2.24-.87l14.27,1.31-2.5-14.11a2.72,2.72,0,1,1,5.35-.95l3.12,17.61a2.7,2.7,0,0,1-2.92,3.18l-14.27-1.31,2.51,14.11a2.73,2.73,0,0,1-2.68,3.19Z"/><path class="cls-1" d="M179.17,612.38a2.69,2.69,0,0,1-1.57-.5l-7.27-5.14a2.71,2.71,0,1,1,3.14-4.43l4.36,3.09,1.82-5a2.72,2.72,0,0,1,4.12-1.29l4.37,3.09,1.82-5a2.71,2.71,0,1,1,5.1,1.85l-3,8.37a2.72,2.72,0,0,1-4.12,1.29l-4.37-3.08-1.82,5a2.7,2.7,0,0,1-1.74,1.67A2.84,2.84,0,0,1,179.17,612.38Z"/><path class="cls-1" d="M608.09,528.25a2.76,2.76,0,0,1-1.88-.75l-3.49-3.35a2.71,2.71,0,0,1,3.75-3.92l.93.88L608,520a2.69,2.69,0,0,1,2-1.39,2.66,2.66,0,0,1,2.29.72l.93.88.61-1.13a2.72,2.72,0,0,1,4.78,2.58l-2.3,4.26a2.69,2.69,0,0,1-2,1.39,2.66,2.66,0,0,1-2.29-.72l-.93-.88-.61,1.13a2.72,2.72,0,0,1-2,1.39Z"/><path class="cls-1" d="M73.65,473.21a2.75,2.75,0,0,1-1.47-.43l-5-3.23a2.72,2.72,0,0,1-.34-4.3l1.79-1.6-2-1.3a2.7,2.7,0,0,1-.34-4.3l4.43-4a2.72,2.72,0,0,1,3.62,4.05l-1.78,1.59,2,1.3a2.73,2.73,0,0,1,1.24,2.07,2.7,2.7,0,0,1-.89,2.23l-1.79,1.6,2,1.3a2.72,2.72,0,0,1-1.47,5Z"/><path class="cls-1" d="M739.06,153a2.72,2.72,0,0,1-1.41-5l1.83-1.11-1.56-1.48a2.72,2.72,0,0,1,.46-4.29l1.84-1.12-1.57-1.48a2.71,2.71,0,0,1,3.73-3.94l4.15,3.92a2.71,2.71,0,0,1-.45,4.29l-1.84,1.12,1.56,1.48a2.71,2.71,0,0,1-.45,4.29l-4.88,3A2.78,2.78,0,0,1,739.06,153Z"/><path class="cls-1" d="M619.52,696.06a2.71,2.71,0,0,1-.82-5.3l3.94-1.26L620.38,686a2.72,2.72,0,0,1,1.45-4.07l3.95-1.26-2.26-3.48a2.71,2.71,0,0,1,4.55-3l4.2,6.46a2.72,2.72,0,0,1-1.45,4.07l-3.94,1.26,2.26,3.47a2.72,2.72,0,0,1-1.45,4.07l-7.34,2.34A2.62,2.62,0,0,1,619.52,696.06Z"/><path class="cls-1" d="M101.2,182.44a2.71,2.71,0,0,1-1-5.22l15.5-6.37-10.25-13.26a2.74,2.74,0,0,1-.47-2.36,2.69,2.69,0,0,1,1.59-1.81L122.05,147,111.8,133.76a2.72,2.72,0,1,1,4.3-3.32l12.42,16.09a2.72,2.72,0,0,1-1.12,4.17l-15.51,6.38,10.25,13.27a2.71,2.71,0,0,1-1.11,4.17l-18.8,7.72A2.66,2.66,0,0,1,101.2,182.44Z"/><path class="cls-1" d="M743.41,305a2.73,2.73,0,0,1-2.6-1.93l-2.6-8.64-7.64,4.8a2.71,2.71,0,0,1-4-1.51l-2.61-8.65-7.65,4.8a2.71,2.71,0,1,1-2.89-4.59L724,282.6a2.75,2.75,0,0,1,2.4-.25,2.71,2.71,0,0,1,1.64,1.76l2.62,8.64,7.64-4.8a2.71,2.71,0,0,1,4,1.52l3.63,12a2.72,2.72,0,0,1-2.6,3.5Z"/><path class="cls-1" d="M496,292.41a2.71,2.71,0,0,1-1.79-.67l-8.11-7.1a2.71,2.71,0,1,1,3.58-4.08l5.43,4.75,3.15-6.5a2.7,2.7,0,0,1,1.9-1.48,2.74,2.74,0,0,1,2.33.62l5.44,4.76,3.15-6.51a2.72,2.72,0,0,1,4.89,2.37l-4.71,9.7a2.68,2.68,0,0,1-1.9,1.48,2.72,2.72,0,0,1-2.32-.62l-5.45-4.75-3.15,6.5a2.72,2.72,0,0,1-1.9,1.48A2.47,2.47,0,0,1,496,292.41Z"/><path class="cls-1" d="M413.8,607.35a2.6,2.6,0,0,1-1-.19,2.71,2.71,0,0,1-1.62-1.78l-2-6.92-6.15,3.74a2.73,2.73,0,0,1-4-1.57l-3-10.34a2.72,2.72,0,0,1,5.22-1.5l2,6.92,6.15-3.74a2.71,2.71,0,0,1,2.4-.21,2.67,2.67,0,0,1,1.62,1.78l2,6.92,6.16-3.74a2.71,2.71,0,1,1,2.82,4.63l-9.19,5.6A2.74,2.74,0,0,1,413.8,607.35Z"/><path class="cls-1" d="M9.58,380a2.71,2.71,0,0,1-1.53-5L23.36,364.6l-14.11-12a2.7,2.7,0,0,1,.24-4.3L24.8,337.85l-14.11-12a2.71,2.71,0,0,1,3.52-4.13L31,336a2.72,2.72,0,0,1-.23,4.31L15.48,350.77l14.11,12a2.72,2.72,0,0,1-.23,4.31L11.1,379.51A2.65,2.65,0,0,1,9.58,380Z"/><path class="cls-1" d="M442,358.23a3,3,0,0,1-.42,0,2.72,2.72,0,0,1-2.27-3.1l2.17-14a2.72,2.72,0,0,1,3.79-2.07l9.68,4.33,1.61-10.47a2.71,2.71,0,0,1,3.79-2.07l12.92,5.79a2.71,2.71,0,1,1-2.22,4.95l-9.67-4.33-1.61,10.47a2.73,2.73,0,0,1-3.79,2.07l-9.68-4.33-1.62,10.48A2.72,2.72,0,0,1,442,358.23Z"/><path class="cls-1" d="M228.16,523.56a2.71,2.71,0,0,1-1.45-5l11.06-6.93-9.62-8.83a2.74,2.74,0,0,1-.87-2.25,2.72,2.72,0,0,1,1.26-2.05l11.06-6.95L230,482.71a2.71,2.71,0,0,1,3.67-4L245.89,490a2.68,2.68,0,0,1,.87,2.24,2.72,2.72,0,0,1-1.26,2.06l-11.06,6.94,9.62,8.83a2.71,2.71,0,0,1-.39,4.3l-14.07,8.83A2.72,2.72,0,0,1,228.16,523.56Z"/><path class="cls-1" d="M740.55,32.54a2.7,2.7,0,0,1-2.64-2.09l-2.54-10.87-9.81,5.32a2.7,2.7,0,0,1-3.94-1.76l-2.55-10.88-9.82,5.33a2.72,2.72,0,0,1-2.59-4.78l13-7a2.71,2.71,0,0,1,3.94,1.77l2.54,10.88,9.82-5.33a2.67,2.67,0,0,1,2.4-.09,2.72,2.72,0,0,1,1.54,1.86l3.34,14.33a2.72,2.72,0,0,1-2,3.26A2.54,2.54,0,0,1,740.55,32.54Z"/><path class="cls-1" d="M426.34,128.36a2.71,2.71,0,0,1-2-.92l-15.94-18.06a2.71,2.71,0,1,1,4.07-3.59L426,121.18,437.26,104a2.72,2.72,0,0,1,2.08-1.22,2.77,2.77,0,0,1,2.23.91l13.61,15.4,11.26-17.19a2.71,2.71,0,1,1,4.54,3L457.77,125a2.75,2.75,0,0,1-2.07,1.22,2.79,2.79,0,0,1-2.23-.91l-13.61-15.4-11.25,17.19a2.7,2.7,0,0,1-2.08,1.22Z"/><path class="cls-1" d="M192.64,438.73a2.82,2.82,0,0,1-.65-.08l-17-4.19a2.72,2.72,0,0,1,1.31-5.27l13.49,3.33-.36-13.89a2.7,2.7,0,0,1,3.36-2.7l13.5,3.32-.35-13.9a2.71,2.71,0,0,1,2.65-2.78,2.68,2.68,0,0,1,2.78,2.64l.44,17.46a2.71,2.71,0,0,1-3.36,2.7L195,422.05l.35,13.89a2.69,2.69,0,0,1-1,2.19A2.73,2.73,0,0,1,192.64,438.73Z"/><path class="cls-1" d="M254.94,745.85a2.73,2.73,0,0,1-2.26-1.21l-7.51-11.3-8.91,10.24a2.65,2.65,0,0,1-2.22.93,2.71,2.71,0,0,1-2.08-1.2L224.43,732l-8.92,10.24a2.71,2.71,0,1,1-4.09-3.56l11.25-12.93a2.68,2.68,0,0,1,2.22-.93A2.72,2.72,0,0,1,227,726l7.53,11.3,8.91-10.25a2.73,2.73,0,0,1,4.31.28l9.48,14.26a2.72,2.72,0,0,1-2.26,4.22Z"/><path class="cls-1" d="M495,465.65a2.76,2.76,0,0,1-1.59-.51,2.73,2.73,0,0,1-.62-3.79l3.45-4.8a2.74,2.74,0,0,1,2.12-1.13,2.69,2.69,0,0,1,2.19,1l1.48,1.82,1.37-1.9a2.69,2.69,0,0,1,2.12-1.13,2.59,2.59,0,0,1,2.19,1l3.71,4.59a2.71,2.71,0,1,1-4.22,3.41l-1.47-1.82-1.37,1.91a2.72,2.72,0,0,1-2.12,1.13,2.75,2.75,0,0,1-2.19-1l-1.48-1.82-1.37,1.91A2.7,2.7,0,0,1,495,465.65Z"/><path class="cls-1" d="M626.72,422.43a2.44,2.44,0,0,1-.71-.1,2.7,2.7,0,0,1-1.8-1.59l-4.94-12.2-10.46,8a2.71,2.71,0,0,1-4.16-1.14l-6.26-15.49a2.71,2.71,0,0,1,5-2l4.93,12.19,10.45-8a2.73,2.73,0,0,1,2.36-.46,2.69,2.69,0,0,1,1.8,1.6l4.94,12.19,10.46-8a2.71,2.71,0,1,1,3.3,4.31l-13.29,10.14A2.7,2.7,0,0,1,626.72,422.43Z"/><path class="cls-1" d="M437.3,64a2.72,2.72,0,0,1-1.08-5.21l17.18-7.37L441.74,36.85a2.72,2.72,0,0,1,1.05-4.19L460,25.27,448.31,10.65a2.72,2.72,0,0,1,4.25-3.39l13.87,17.41a2.71,2.71,0,0,1-1.05,4.18L448.2,36.24l11.66,14.62a2.72,2.72,0,0,1-1.05,4.19l-20.44,8.77A2.73,2.73,0,0,1,437.3,64Z"/><path class="cls-1" d="M581.33,366.09a2.71,2.71,0,0,1-1.92-.79L571.06,357a2.72,2.72,0,0,1,3.84-3.84l5.82,5.81,4.07-7.16a2.7,2.7,0,0,1,4.27-.58L594.9,357l4.07-7.16a2.71,2.71,0,1,1,4.72,2.68l-5.82,10.26a2.76,2.76,0,0,1-2,1.35,2.73,2.73,0,0,1-2.28-.77l-5.84-5.82-4.06,7.17a2.76,2.76,0,0,1-2,1.35Z"/><path class="cls-1" d="M107.32,272.28a2.7,2.7,0,0,1-2-.88L92,256.89a2.72,2.72,0,0,1,.76-4.25l14.35-7.39L96.21,233.37a2.74,2.74,0,0,1-.68-2.32A2.69,2.69,0,0,1,97,229.12l17.51-9A2.71,2.71,0,0,1,117,225l-14.35,7.37,10.91,11.88a2.73,2.73,0,0,1,.67,2.32,2.68,2.68,0,0,1-1.43,1.93l-14.35,7.39,10.91,11.89a2.72,2.72,0,0,1-.17,3.84A2.67,2.67,0,0,1,107.32,272.28Z"/><path class="cls-1" d="M116.68,750a2.73,2.73,0,0,1-2.26-1.2L104.5,734,92.88,747.46a2.64,2.64,0,0,1-2.21.94,2.74,2.74,0,0,1-2.1-1.19l-9.94-14.78L67,745.92a2.71,2.71,0,0,1-4.11-3.54l14-16.19a2.67,2.67,0,0,1,2.22-.93,2.72,2.72,0,0,1,2.09,1.19l9.94,14.78,11.62-13.49A2.72,2.72,0,0,1,107,728l11.91,17.73a2.7,2.7,0,0,1-.74,3.76A2.64,2.64,0,0,1,116.68,750Z"/><path class="cls-1" d="M302.78,139.78a2.71,2.71,0,0,1-2.38-1.41l-4-7.32a2.71,2.71,0,0,1,1.74-4l4.67-1.12-2.32-4.21a2.73,2.73,0,0,1,1.75-4l8.13-1.94a2.71,2.71,0,1,1,1.26,5.28l-4.66,1.11,2.31,4.21a2.7,2.7,0,0,1-1.74,3.94l-4.67,1.13,2.31,4.21a2.71,2.71,0,0,1-1.07,3.68A2.66,2.66,0,0,1,302.78,139.78Z"/><path class="cls-1" d="M312.31,296.82a2.71,2.71,0,0,1-1.87-4.67l11.52-11-13.71-8.19a2.72,2.72,0,0,1-.48-4.29l11.52-11.06-13.71-8.2a2.72,2.72,0,1,1,2.79-4.66l16.76,10a2.67,2.67,0,0,1,1.3,2,2.71,2.71,0,0,1-.81,2.27l-11.53,11.05,13.71,8.19a2.71,2.71,0,0,1,1.3,2,2.66,2.66,0,0,1-.82,2.26l-14.09,13.51A2.71,2.71,0,0,1,312.31,296.82Z"/><path class="cls-1" d="M643.83,484.12a2.59,2.59,0,0,1-.48,0,2.72,2.72,0,0,1-1.93-1.43L631.86,464l-15.43,14.13a2.68,2.68,0,0,1-2.31.67,2.74,2.74,0,0,1-1.94-1.43L601,455.62a2.71,2.71,0,0,1,4.83-2.47l9.54,18.61,15.43-14.13a2.69,2.69,0,0,1,4.24.76L644.62,477l15.44-14.14a2.72,2.72,0,1,1,3.67,4l-18.06,16.53A2.74,2.74,0,0,1,643.83,484.12Z"/><path class="cls-1" d="M378.39,483.42a2.65,2.65,0,0,1-.74-.11l-11.84-3.37a2.7,2.7,0,0,1-1.58-4l4.53-7.49-8.42-2.39a2.74,2.74,0,0,1-1.78-1.62,2.71,2.71,0,0,1,.21-2.4l6.37-10.52a2.71,2.71,0,1,1,4.64,2.81l-4.53,7.48,8.42,2.39a2.72,2.72,0,0,1,1.58,4l-4.54,7.49,8.42,2.4a2.72,2.72,0,0,1-.74,5.33Z"/><path class="cls-1" d="M492.24,173.47a2.53,2.53,0,0,1-.77-.12l-5.88-1.74a2.72,2.72,0,0,1,1.56-5.21l2.45.73.06-2.56a2.7,2.7,0,0,1,1.11-2.13,2.73,2.73,0,0,1,2.38-.41l2.46.73.06-2.57a2.71,2.71,0,0,1,2.71-2.66h.06a2.72,2.72,0,0,1,2.66,2.78l-.14,6.12a2.7,2.7,0,0,1-3.48,2.54l-2.47-.73-.05,2.57a2.72,2.72,0,0,1-2.72,2.66Z"/><path class="cls-1" d="M279.55,219.47a2.79,2.79,0,0,1-.81-.12l-19.21-6a2.72,2.72,0,0,1,1.61-5.19L277,213.1l.56-16.55A2.71,2.71,0,0,1,281,194L296.86,199l.56-16.57a2.72,2.72,0,0,1,5.43.18l-.69,20.13a2.7,2.7,0,0,1-3.51,2.5l-15.83-4.92-.56,16.56a2.71,2.71,0,0,1-1.14,2.12A2.67,2.67,0,0,1,279.55,219.47Z"/><path class="cls-1" d="M410.39,427.93l-.32,0-15.35-1.81a2.71,2.71,0,1,1,.63-5.39l11.82,1.39-1.78-11.77a2.7,2.7,0,0,1,.73-2.29,2.73,2.73,0,0,1,2.27-.81l11.83,1.39-1.78-11.78a2.72,2.72,0,1,1,5.37-.81l2.31,15.3a2.71,2.71,0,0,1-3,3.1L411.29,413l1.78,11.77a2.71,2.71,0,0,1-2.68,3.12Z"/><path class="cls-1" d="M637.7,195.73a2.72,2.72,0,0,1-2.71-2.56l-.94-16.9-16,5.39a2.77,2.77,0,0,1-2.39-.33,2.73,2.73,0,0,1-1.19-2.09l-.95-16.92-16.07,5.39a2.71,2.71,0,0,1-1.72-5.15L615.11,156a2.77,2.77,0,0,1,2.39.33,2.7,2.7,0,0,1,1.18,2.09l1,16.92L635.7,170a2.71,2.71,0,0,1,3.57,2.42l1.14,20.45a2.72,2.72,0,0,1-2.56,2.87Z"/><path class="cls-1" d="M141.28,658.61a2.65,2.65,0,0,1-1-.2,2.71,2.71,0,0,1-1.5-3.53l2.88-7.13a2.72,2.72,0,0,1,1.79-1.6,2.75,2.75,0,0,1,2.37.46l3.28,2.5,1.54-3.83a2.72,2.72,0,0,1,4.17-1.14l6.11,4.65a2.72,2.72,0,0,1-3.29,4.32l-3.28-2.5-1.54,3.82a2.71,2.71,0,0,1-4.16,1.15l-3.29-2.5-1.54,3.83A2.72,2.72,0,0,1,141.28,658.61Z"/><path class="cls-1" d="M614.09,644.24a2.72,2.72,0,0,1-.41-5.4l20.7-3.22-8.59-19.12a2.71,2.71,0,0,1,2.06-3.79l20.72-3.24L640,590.34a2.72,2.72,0,0,1,5-2.22l10,22.37a2.72,2.72,0,0,1-2.06,3.8l-20.72,3.23,8.59,19.13a2.71,2.71,0,0,1-2.06,3.79l-24.22,3.77Z"/><path class="cls-1" d="M461.77,244.51h0L448,244.4a2.72,2.72,0,0,1,0-5.43h0l10.16.08-2.61-9.82a2.72,2.72,0,0,1,2.64-3.41l10.17.08-2.61-9.83a2.72,2.72,0,0,1,5.25-1.39l3.52,13.26a2.7,2.7,0,0,1-.48,2.36,2.59,2.59,0,0,1-2.16,1l-10.17-.07,2.61,9.82a2.71,2.71,0,0,1-2.62,3.41Z"/><path class="cls-1" d="M738,405.05a2.71,2.71,0,0,1-.61-5.36l1.42-.32-.69-1.28a2.71,2.71,0,0,1,1.79-3.93l1.42-.33-.69-1.28a2.71,2.71,0,1,1,4.78-2.57l2.37,4.42a2.71,2.71,0,0,1-1.78,3.93l-1.42.32.69,1.29a2.67,2.67,0,0,1,.07,2.4,2.73,2.73,0,0,1-1.86,1.53L738.62,405A2.46,2.46,0,0,1,738,405.05Z"/><path class="cls-1" d="M89.21,85.63a2.73,2.73,0,0,1-2-.87L69.29,65.26a2.72,2.72,0,0,1,4-3.68L88.8,78.46,101,59a2.71,2.71,0,0,1,4.3-.4l15.54,16.88L133,56.07a2.71,2.71,0,0,1,4.6,2.88L123.52,81.41a2.74,2.74,0,0,1-2,1.26,2.7,2.7,0,0,1-2.25-.87L103.69,64.92,91.51,84.36a2.69,2.69,0,0,1-2.05,1.26Z"/><path class="cls-1" d="M383.08,647.8a3.11,3.11,0,0,1-.43,0,2.73,2.73,0,0,1-2.26-3.11l.7-4.39a2.71,2.71,0,0,1,3.8-2l.8.36.14-.87a2.71,2.71,0,0,1,3.8-2.05l4.05,1.83a2.72,2.72,0,0,1-2.24,5l-.8-.37-.14.87a2.71,2.71,0,0,1-3.8,2l-.8-.36-.14.87A2.72,2.72,0,0,1,383.08,647.8Z"/><path class="cls-1" d="M353,221.73h-.13a2.72,2.72,0,0,1-2.59-2.84l.06-1.29-1.26.29a2.74,2.74,0,0,1-2.34-.57,2.7,2.7,0,0,1-1-2.2l.06-1.3-1.27.28a2.71,2.71,0,1,1-1.2-5.29l4.74-1.07a2.72,2.72,0,0,1,3.31,2.77l-.06,1.3,1.27-.29a2.72,2.72,0,0,1,3.31,2.77l-.22,4.85A2.72,2.72,0,0,1,353,221.73Z"/><path class="cls-1" d="M14.63,580.37a2.71,2.71,0,0,1-2-4.56L18,570l-7-3.64a2.71,2.71,0,0,1-1.43-1.93,2.74,2.74,0,0,1,.68-2.31l5.37-5.83-7-3.64a2.71,2.71,0,0,1,2.5-4.82l10.19,5.27a2.71,2.71,0,0,1,.75,4.25l-5.37,5.83,7,3.63a2.72,2.72,0,0,1,.75,4.25l-7.78,8.43A2.73,2.73,0,0,1,14.63,580.37Z"/><path class="cls-1" d="M748.58,95.23a2.7,2.7,0,0,1-2.3-1.28L735.51,76.69l-13.8,15a2.7,2.7,0,0,1-2.25.86,2.74,2.74,0,0,1-2.05-1.26L706.62,74l-13.81,15a2.72,2.72,0,0,1-4-3.69L705,67.68a2.76,2.76,0,0,1,2.25-.86,2.7,2.7,0,0,1,2.05,1.26l10.79,17.27,13.81-15a2.71,2.71,0,0,1,2.24-.86,2.68,2.68,0,0,1,2.05,1.26l12.65,20.29a2.71,2.71,0,0,1-2.3,4.15Z"/><path class="cls-1" d="M20.44,455.58a2.72,2.72,0,0,1-2.2-1.12L9.3,442.12A2.72,2.72,0,0,1,10.54,438l10.93-4.11-6.85-9.45a2.72,2.72,0,0,1,1.24-4.14l14.26-5.35A2.71,2.71,0,0,1,32,420l-10.93,4.1L28,433.57a2.71,2.71,0,0,1,.41,2.37,2.75,2.75,0,0,1-1.65,1.76l-10.93,4.11,6.85,9.46a2.72,2.72,0,0,1-2.19,4.31Z"/><path class="cls-1" d="M485.1,633a2.7,2.7,0,0,1-2.24-1.17l-10.92-15.86a2.73,2.73,0,0,1,1.34-4.11l14.83-5.17-8.91-12.92a2.72,2.72,0,0,1,1.35-4.11l18.17-6.32a2.71,2.71,0,1,1,1.79,5.12l-14.82,5.16,8.9,12.92a2.71,2.71,0,0,1-1.34,4.11l-14.82,5.17,8.9,12.93A2.71,2.71,0,0,1,485.1,633Z"/><path class="cls-1" d="M366.67,316.45a2.89,2.89,0,0,1-.65-.08l-14.15-3.44a2.72,2.72,0,1,1,1.28-5.28l10.7,2.6-.32-11a2.7,2.7,0,0,1,3.35-2.71l10.71,2.59-.32-11a2.72,2.72,0,1,1,5.43-.16l.42,14.57a2.72,2.72,0,0,1-3.35,2.72l-10.71-2.6.32,11a2.72,2.72,0,0,1-1,2.19A2.67,2.67,0,0,1,366.67,316.45Z"/><path class="cls-1" d="M561.42,465.73a2.79,2.79,0,0,1-1.06-.22l-5.25-2.23a2.72,2.72,0,0,1,2.12-5l2,.84.28-2.13a2.73,2.73,0,0,1,3.75-2.14l2,.84.29-2.13a2.71,2.71,0,0,1,5.38.72l-.76,5.66a2.72,2.72,0,0,1-3.75,2.14l-2-.84-.29,2.13a2.71,2.71,0,0,1-2.69,2.36Z"/><path class="cls-1" d="M145.72,571.34a2.67,2.67,0,0,1-1.22-.29,2.71,2.71,0,0,1-1.19-3.65l11.18-22a2.76,2.76,0,0,1,1.93-1.44,2.7,2.7,0,0,1,2.32.66L174.4,558.8,184,539.94a2.72,2.72,0,0,1,4.25-.78l18.27,16.6a2.71,2.71,0,1,1-3.65,4L187.2,545.57l-9.57,18.85a2.7,2.7,0,0,1-4.24.79L157.72,551l-9.57,18.86A2.72,2.72,0,0,1,145.72,571.34Z"/><path class="cls-1" d="M313.88,748.1a2.71,2.71,0,0,1-2.62-2l-2.67-10.2-9.13,5.28a2.71,2.71,0,0,1-4-1.65l-2.69-10.21-9.13,5.29a2.72,2.72,0,1,1-2.72-4.7l12.21-7.07a2.73,2.73,0,0,1,4,1.66l2.68,10.2L309,729.4a2.71,2.71,0,0,1,4,1.66l3.58,13.64a2.71,2.71,0,0,1-1.93,3.31A2.8,2.8,0,0,1,313.88,748.1Z"/><path class="cls-1" d="M101.64,344.33a2.81,2.81,0,0,1-1.17-.26l-17.68-8.45a2.72,2.72,0,0,1,2.35-4.9l14.46,6.92,2.83-15.79a2.72,2.72,0,0,1,3.84-2l14.48,6.91L123.6,311a2.71,2.71,0,0,1,5.34,1l-3.47,19.29a2.73,2.73,0,0,1-1.44,1.94,2.7,2.7,0,0,1-2.4,0l-14.48-6.91-2.84,15.79a2.74,2.74,0,0,1-1.43,1.94A2.82,2.82,0,0,1,101.64,344.33Z"/><path class="cls-1" d="M384.41,82.3a2.72,2.72,0,0,1-1.61-4.9l7.6-5.63L383,65.93a2.71,2.71,0,0,1,.06-4.31l7.6-5.64-7.44-5.85a2.71,2.71,0,1,1,3.35-4.27l10.24,8a2.71,2.71,0,0,1-.06,4.31l-7.6,5.64,7.44,5.84a2.72,2.72,0,0,1-.06,4.32L386,81.77A2.8,2.8,0,0,1,384.41,82.3Z"/><path class="cls-1" d="M662.36,378.6a2.76,2.76,0,0,1-.93-.16L649,373.9a2.72,2.72,0,0,1-1.28-4.12l5.59-7.86-9.06-3.32a2.71,2.71,0,0,1-1.28-4.12l7.66-10.75a2.71,2.71,0,1,1,4.42,3.15l-5.59,7.85,9,3.31a2.69,2.69,0,0,1,1.66,1.74,2.72,2.72,0,0,1-.38,2.38L654.24,370l9.06,3.32a2.71,2.71,0,0,1-.94,5.26Z"/><path class="cls-1" d="M650.23,748.08a3.27,3.27,0,0,1-.44,0l-6.87-1.13a2.71,2.71,0,0,1-2-3.81l1.42-3.09-3.35-.55a2.74,2.74,0,0,1-2-1.4,2.69,2.69,0,0,1-.07-2.41l2.9-6.32a2.71,2.71,0,1,1,4.93,2.26l-1.41,3.09,3.35.55a2.7,2.7,0,0,1,2,1.4,2.76,2.76,0,0,1,.07,2.41l-1.42,3.09,3.36.55a2.72,2.72,0,0,1-.44,5.4Z"/><path class="cls-1" d="M665,288.7a2.71,2.71,0,0,1-2.22-1.15L647.06,265.2a2.71,2.71,0,0,1,1.3-4.11l22.37-8.1L657,233.56a2.72,2.72,0,0,1,1.29-4.12L684,220.17a2.71,2.71,0,0,1,1.84,5.1l-22.36,8.07,13.71,19.43a2.72,2.72,0,0,1-1.29,4.12L653.55,265l13.71,19.44A2.71,2.71,0,0,1,665,288.7Z"/><path class="cls-1" d="M597.69,586.45h0a2.72,2.72,0,0,1-2.72-2.72v-7.15l-6.9,1.9a2.72,2.72,0,0,1-3.44-2.62V568.7l-6.91,1.89a2.71,2.71,0,0,1-1.43-5.23l10.33-2.84A2.75,2.75,0,0,1,589,563a2.72,2.72,0,0,1,1.07,2.16v7.16l6.9-1.9A2.71,2.71,0,0,1,600.4,573v10.71A2.71,2.71,0,0,1,597.69,586.45Z"/><path class="cls-1" d="M11.57,29.15a2.72,2.72,0,0,1-1.81-.7l-8.86-8a2.71,2.71,0,1,1,3.63-4L10.74,22l3.74-7.46a2.73,2.73,0,0,1,1.92-1.46,2.7,2.7,0,0,1,2.32.65l6.22,5.58,3.74-7.47a2.72,2.72,0,0,1,4.86,2.43L28.2,25a2.69,2.69,0,0,1-1.92,1.45A2.72,2.72,0,0,1,24,25.76l-6.22-5.58L14,27.65a2.71,2.71,0,0,1-1.92,1.45A2.94,2.94,0,0,1,11.57,29.15Z"/><path class="cls-1" d="M590.66,131.9a2.7,2.7,0,0,1-2.64-2.12l-4.75-21.12a2.71,2.71,0,0,1,.56-2.34,2.78,2.78,0,0,1,2.21-1l18.08.83-4-17.66a2.72,2.72,0,0,1,.57-2.34,2.79,2.79,0,0,1,2.2-1l21.63,1a2.72,2.72,0,0,1,2.58,2.84,2.75,2.75,0,0,1-2.84,2.58l-18.06-.84,4,17.65a2.74,2.74,0,0,1-.57,2.34,2.71,2.71,0,0,1-2.21,1l-18.08-.83,4,17.66a2.73,2.73,0,0,1-2.06,3.25A3.05,3.05,0,0,1,590.66,131.9Z"/><path class="cls-1" d="M442.63,505.86a2.7,2.7,0,0,1-2.48-3.8l5.17-11.8-12.75-1.85a2.73,2.73,0,0,1-2.1-3.78l5.17-11.81L422.88,471a2.71,2.71,0,0,1,.78-5.37L439.94,468a2.73,2.73,0,0,1,2,1.37,2.76,2.76,0,0,1,.12,2.41l-5.17,11.81,12.75,1.86a2.71,2.71,0,0,1,2.1,3.77l-6.6,15.06A2.7,2.7,0,0,1,442.63,505.86Z"/><path class="cls-1" d="M189.5,702.21a2.72,2.72,0,0,1-1.79-.68l-7.2-6.32a2.71,2.71,0,1,1,3.58-4.08l4.53,4,2.63-5.43a2.7,2.7,0,0,1,1.91-1.47,2.67,2.67,0,0,1,2.33.61l4.54,4,2.64-5.43a2.71,2.71,0,0,1,4.88,2.38l-4.2,8.63a2.71,2.71,0,0,1-4.23.85l-4.54-4L192,700.68a2.7,2.7,0,0,1-1.91,1.47A2.48,2.48,0,0,1,189.5,702.21Z"/><path class="cls-1" d="M127,467.18a2.38,2.38,0,0,1-.53-.05l-9.77-1.91a2.72,2.72,0,0,1,1-5.33l6.28,1.23-.47-6.39a2.7,2.7,0,0,1,3.22-2.86l6.3,1.23-.48-6.4a2.71,2.71,0,0,1,5.41-.4l.74,9.94a2.7,2.7,0,0,1-.9,2.23,2.73,2.73,0,0,1-2.32.64l-6.3-1.23.48,6.39a2.7,2.7,0,0,1-.9,2.23A2.74,2.74,0,0,1,127,467.18Z"/><path class="cls-1" d="M734.76,691.46a2.72,2.72,0,0,1-1.19-5.16l4-2-3-3.35a2.72,2.72,0,0,1,.85-4.23l4-2-3-3.36a2.71,2.71,0,0,1,4.07-3.59l5.31,6a2.75,2.75,0,0,1,.63,2.33,2.71,2.71,0,0,1-1.47,1.9l-4,2,3,3.35a2.73,2.73,0,0,1-.85,4.24L736,691.18A2.66,2.66,0,0,1,734.76,691.46Z"/><path class="cls-1" d="M372,177.41a2.7,2.7,0,0,1-1.42-.4l-21.36-13.16a2.72,2.72,0,0,1-.43-4.3l15.73-14.7-18.32-11.28a2.72,2.72,0,0,1-.43-4.3l18.33-17.1a2.72,2.72,0,0,1,3.71,4l-15.73,14.67,18.32,11.29a2.71,2.71,0,0,1,.43,4.29l-15.73,14.7,18.32,11.3a2.71,2.71,0,0,1-1.42,5Z"/><path class="cls-1" d="M431.64,684.28a2.71,2.71,0,0,1-.44-5.39l10.05-1.68L437,668a2.72,2.72,0,0,1,.06-2.41,2.78,2.78,0,0,1,2-1.41l10.07-1.69-4.29-9.26a2.72,2.72,0,1,1,4.93-2.28l5.78,12.49a2.71,2.71,0,0,1-2,3.82l-10.07,1.69,4.29,9.26a2.72,2.72,0,0,1-.07,2.41,2.69,2.69,0,0,1-1.95,1.41l-13.57,2.27Z"/><path class="cls-1" d="M725.85,512.17a2.7,2.7,0,0,1-2.71-2.69L723,486.74l-21.89,6.17a2.71,2.71,0,0,1-3.45-2.6L697.45,464a2.71,2.71,0,0,1,2.7-2.73h0a2.71,2.71,0,0,1,2.71,2.69l.16,22.73,21.88-6.17a2.66,2.66,0,0,1,2.36.44,2.72,2.72,0,0,1,1.09,2.15l.17,22.74,21.89-6.16a2.71,2.71,0,1,1,1.47,5.22l-25.31,7.13A2.69,2.69,0,0,1,725.85,512.17Z"/><path class="cls-1" d="M22.1,742.75a2.73,2.73,0,0,1-2.25-1.19L8,724A2.72,2.72,0,0,1,9.39,720L26,714.29l-9.85-14.56a2.72,2.72,0,0,1,1.38-4.09l20-6.78A2.71,2.71,0,1,1,39.32,694l-16.64,5.64,9.85,14.56a2.71,2.71,0,0,1,.32,2.38,2.68,2.68,0,0,1-1.7,1.71L14.5,723.94l9.85,14.57a2.72,2.72,0,0,1-.73,3.77A2.67,2.67,0,0,1,22.1,742.75Z"/><path class="cls-1" d="M175.56,153.09a2.76,2.76,0,0,1-1.35-.36,2.73,2.73,0,0,1-1-3.71l8.63-15-16.79-4.34a2.74,2.74,0,0,1-1.82-1.58,2.71,2.71,0,0,1,.15-2.4L172,110.61l-16.79-4.34a2.72,2.72,0,1,1,1.36-5.26l20.24,5.24a2.71,2.71,0,0,1,1.67,4l-8.63,15,16.8,4.34a2.72,2.72,0,0,1,1.67,4l-10.4,18.12A2.71,2.71,0,0,1,175.56,153.09Z"/><path class="cls-1" d="M518.3,535.31a2.67,2.67,0,0,1-1.76-.66l-20.67-17.73a2.71,2.71,0,1,1,3.53-4.12l18,15.42,10.11-21.42a2.7,2.7,0,0,1,1.88-1.5,2.76,2.76,0,0,1,2.34.6l18,15.41,10.12-21.43a2.72,2.72,0,0,1,4.91,2.32l-11.64,24.64a2.71,2.71,0,0,1-4.22.9l-18-15.41-10.11,21.42a2.71,2.71,0,0,1-1.89,1.5A2.76,2.76,0,0,1,518.3,535.31Z"/><path class="cls-1" d="M269.88,458.28a2.75,2.75,0,0,1-2.07-.95l-15.67-18.4a2.72,2.72,0,0,1,4.14-3.52l13.36,15.69,11.59-17.05a2.72,2.72,0,0,1,4.31-.23l13.38,15.69,11.61-17.05a2.71,2.71,0,1,1,4.49,3.05l-13.61,20a2.71,2.71,0,0,1-4.31.24L283.72,440l-11.6,17a2.72,2.72,0,0,1-2.09,1.19Z"/><path class="cls-1" d="M513.91,350.32A2.72,2.72,0,0,1,513,345l3.23-1.12-1.94-2.82a2.72,2.72,0,0,1,1.34-4.1l3.24-1.13L517,333.05a2.71,2.71,0,1,1,4.47-3.08l4,5.75a2.72,2.72,0,0,1-1.35,4.11L520.8,341l1.94,2.82a2.71,2.71,0,0,1-1.34,4.11l-6.59,2.29A2.83,2.83,0,0,1,513.91,350.32Z"/><path class="cls-1" d="M220.53,202.07a2.68,2.68,0,0,1-1-.18,2.72,2.72,0,0,1-1.58-3.51l1.91-5-5.34-.51a2.72,2.72,0,0,1-2.28-3.66l1.91-5-5.34-.51a2.72,2.72,0,1,1,.52-5.41l8.88.86a2.71,2.71,0,0,1,2.28,3.67l-1.91,5,5.35.51a2.72,2.72,0,0,1,2.27,3.67l-3.17,8.34A2.73,2.73,0,0,1,220.53,202.07Z"/><path class="cls-1" d="M385.55,701.5a2.73,2.73,0,0,1-2.26-1.2l-12.37-18.45-14.51,16.83a2.73,2.73,0,0,1-4.31-.26L339.7,680l-14.53,16.83a2.72,2.72,0,0,1-4.11-3.55l16.86-19.51a2.7,2.7,0,0,1,4.3.26l12.4,18.45,14.52-16.83a2.64,2.64,0,0,1,2.22-.93,2.73,2.73,0,0,1,2.09,1.19l14.35,21.4a2.71,2.71,0,0,1-2.25,4.23Z"/><path class="cls-1" d="M212.8,95.27a2.71,2.71,0,0,1-2.66-2.18l-.91-4.51a2.72,2.72,0,0,1,2.85-3.24l1,.07-.2-1a2.68,2.68,0,0,1,.62-2.32,2.76,2.76,0,0,1,2.23-.92l4.58.32a2.71,2.71,0,1,1-.38,5.41l-1-.07.21,1a2.71,2.71,0,0,1-.62,2.32,2.68,2.68,0,0,1-2.23.92l-1-.07.2,1a2.7,2.7,0,0,1-2.13,3.19A2.46,2.46,0,0,1,212.8,95.27Z"/><path class="cls-1" d="M499.75,31.09A2.74,2.74,0,0,1,497.56,30a2.71,2.71,0,0,1,.58-3.79l2.25-1.66-2.2-1.74a2.71,2.71,0,0,1,.07-4.31l2.26-1.67-2.21-1.74a2.71,2.71,0,0,1,3.36-4.26l5,3.94a2.7,2.7,0,0,1,1,2.17,2.73,2.73,0,0,1-1.11,2.14l-2.25,1.67,2.2,1.73a2.72,2.72,0,0,1-.07,4.32l-5.12,3.78A2.77,2.77,0,0,1,499.75,31.09Z"/><path class="cls-1" d="M255.23,597.39h-.08l-9.2-.29a2.71,2.71,0,0,1-2.51-3.5l1.66-5.4-5.65-.17a2.72,2.72,0,0,1-2.51-3.51l2.71-8.8a2.72,2.72,0,0,1,5.19,1.6l-1.66,5.39,5.64.17a2.71,2.71,0,0,1,2.51,3.51l-1.66,5.4,5.65.17a2.72,2.72,0,0,1-.09,5.43Z"/><path class="cls-1" d="M587.4,742.89a1.67,1.67,0,0,1-.31,0,2.68,2.68,0,0,1-2-1.31l-6.74-11.33-9.15,9.5a2.64,2.64,0,0,1-2.26.81,2.71,2.71,0,0,1-2-1.31l-8.55-14.39a2.71,2.71,0,0,1,4.67-2.77l6.72,11.33,9.15-9.49a2.65,2.65,0,0,1,2.26-.82,2.71,2.71,0,0,1,2,1.31l6.75,11.33,9.15-9.49A2.72,2.72,0,0,1,601,730l-11.62,12A2.74,2.74,0,0,1,587.4,742.89Z"/><path class="cls-1" d="M25.12,644.38a2.81,2.81,0,0,1-1-.2L2.88,635.52a2.71,2.71,0,0,1,2-5l17.93,7.3,2.3-19.23a2.72,2.72,0,0,1,3.72-2.19l18,7.3,2.3-19.24a2.71,2.71,0,1,1,5.39.65l-2.73,22.77a2.7,2.7,0,0,1-3.71,2.19l-17.95-7.3L27.82,642a2.73,2.73,0,0,1-2.7,2.4Z"/><path class="cls-1" d="M84.44,572.12a2.72,2.72,0,0,1-2.57-1.83l-8.81-25.4a2.73,2.73,0,0,1,2.39-3.6l23.27-1.55-7.65-22a2.71,2.71,0,0,1,2.39-3.6l26.8-1.77a2.72,2.72,0,0,1,.36,5.42l-23.25,1.53,7.64,22a2.71,2.71,0,0,1-2.38,3.6l-23.27,1.55,7.64,22A2.71,2.71,0,0,1,85.32,572,2.48,2.48,0,0,1,84.44,572.12Z"/><path class="cls-1" d="M624.09,309.94a2.72,2.72,0,0,1-2.67-2.24l-.63-3.57-3.28,1.55a2.72,2.72,0,0,1-2.41,0,2.68,2.68,0,0,1-1.42-1.94l-.64-3.58-3.29,1.56a2.72,2.72,0,0,1-2.32-4.91l6.5-3.07a2.72,2.72,0,0,1,2.41,0,2.67,2.67,0,0,1,1.42,1.93l.64,3.58,3.28-1.56a2.72,2.72,0,0,1,3.84,2l1.25,7.08a2.72,2.72,0,0,1-2.2,3.15A2.59,2.59,0,0,1,624.09,309.94Z"/><path class="cls-1" d="M534.67,427.26a2.71,2.71,0,0,1-1.73-4.81l8-6.57-8.45-6a2.71,2.71,0,0,1-.16-4.31l8-6.58-8.46-6a2.72,2.72,0,0,1,3.14-4.44l11.36,8a2.71,2.71,0,0,1,.15,4.31l-8,6.58,8.46,6a2.72,2.72,0,0,1,.16,4.31l-10.74,8.83A2.75,2.75,0,0,1,534.67,427.26Z"/><path class="cls-1" d="M437.08,743.47a2.7,2.7,0,0,1-1.85-.73l-16.45-15.31a2.71,2.71,0,1,1,3.7-4l13.84,12.88,8.76-16.77a2.72,2.72,0,0,1,4.25-.73l13.87,12.89L472,715a2.71,2.71,0,1,1,4.81,2.51L466.36,737.4a2.69,2.69,0,0,1-1.95,1.41,2.73,2.73,0,0,1-2.3-.68l-13.87-12.89L439.48,742a2.73,2.73,0,0,1-2,1.42A3.42,3.42,0,0,1,437.08,743.47Z"/><path class="cls-1" d="M293.16,680.3a2.7,2.7,0,0,1-2.23-1.16l-4.57-6.51a2.72,2.72,0,0,1,1.3-4.11L291.8,667l-2.52-3.6a2.71,2.71,0,0,1,1.3-4.11l7.49-2.69a2.71,2.71,0,0,1,1.83,5.11l-4.14,1.49,2.53,3.59a2.71,2.71,0,0,1-1.3,4.11l-4.14,1.49,2.53,3.6a2.71,2.71,0,0,1-.67,3.78A2.65,2.65,0,0,1,293.16,680.3Z"/><path class="cls-1" d="M417.76,193.79a2.75,2.75,0,0,1-1.57-.49l-17-12a2.71,2.71,0,1,1,3.14-4.43l14.1,10,5.87-16.25A2.73,2.73,0,0,1,424,168.9a2.69,2.69,0,0,1,2.38.37l14.13,10L446.42,163a2.72,2.72,0,0,1,5.11,1.85l-7.1,19.59a2.73,2.73,0,0,1-1.74,1.67,2.76,2.76,0,0,1-2.38-.38l-14.12-10L420.31,192a2.7,2.7,0,0,1-1.74,1.67A2.84,2.84,0,0,1,417.76,193.79Z"/><path class="cls-1" d="M289.93,553.54a2.71,2.71,0,0,1-2.71-2.77l.1-5L282.5,547a2.78,2.78,0,0,1-2.36-.51,2.72,2.72,0,0,1-1-2.18l.18-8.53a2.71,2.71,0,0,1,2.71-2.66h.06a2.72,2.72,0,0,1,2.66,2.77l-.11,5,4.82-1.21a2.7,2.7,0,0,1,3.38,2.68l-.1,5,4.82-1.22a2.72,2.72,0,0,1,1.33,5.27l-8.27,2.08A2.56,2.56,0,0,1,289.93,553.54Z"/><path class="cls-1" d="M385.56,257.66a2.72,2.72,0,0,1-2.7-2.53l-.77-10.95a2.72,2.72,0,0,1,3.24-2.85l7.28,1.45-.52-7.4a2.73,2.73,0,0,1,3.24-2.85l10.76,2.16A2.71,2.71,0,1,1,405,240l-7.26-1.45.51,7.39A2.71,2.71,0,0,1,395,248.8l-7.27-1.45.51,7.4a2.7,2.7,0,0,1-2.51,2.9Z"/><path class="cls-1" d="M149.48,18.28a2.73,2.73,0,0,1-2.54-1.75l-.79-2.08-1.79,1.31a2.71,2.71,0,0,1-4.14-1.23l-.79-2.09-1.81,1.32a2.72,2.72,0,0,1-3.2-4.39L139.1,6a2.72,2.72,0,0,1,4.14,1.23L144,9.28,145.83,8A2.71,2.71,0,0,1,150,9.19L152,14.61a2.71,2.71,0,0,1-1.58,3.49A2.68,2.68,0,0,1,149.48,18.28Z"/><path class="cls-1" d="M663.67,134.63a2.72,2.72,0,0,1-1.7-.6l-11.36-9.17a2.71,2.71,0,0,1,.12-4.31l8.95-6.45-8.59-6.93a2.72,2.72,0,0,1-1-2.19,2.69,2.69,0,0,1,1.13-2.12L663,94.33a2.72,2.72,0,0,1,3.17,4.41l-8.94,6.44,8.58,6.92a2.72,2.72,0,0,1-.11,4.32l-9,6.45,8.58,6.93a2.72,2.72,0,0,1-1.7,4.83Z"/><path class="cls-1" d="M187.42,56.14a2.25,2.25,0,0,1-.44,0A2.72,2.72,0,0,1,184.74,53l4.32-26.25a2.71,2.71,0,0,1,1.41-1.95,2.67,2.67,0,0,1,2.4-.07l20.95,9.61,3.74-22.74a2.7,2.7,0,0,1,1.4-2,2.76,2.76,0,0,1,2.41-.07l24.16,11.11a2.71,2.71,0,0,1-2.27,4.93L222.33,16,218.6,38.71a2.71,2.71,0,0,1-3.81,2l-20.95-9.61L190.1,53.87A2.72,2.72,0,0,1,187.42,56.14Z"/><path class="cls-1" d="M36.22,516.81a2.71,2.71,0,0,1-2.6-2l-2.71-9.48-8.43,5.12a2.71,2.71,0,0,1-4-1.57l-2.72-9.49-8.43,5.12A2.71,2.71,0,1,1,4.5,499.9l11.48-7a2.7,2.7,0,0,1,4,1.58L22.71,504l8.43-5.12a2.71,2.71,0,0,1,4,1.58l3.67,12.9A2.7,2.7,0,0,1,37,516.7,2.78,2.78,0,0,1,36.22,516.81Z"/><path class="cls-1" d="M96.93,631a2.38,2.38,0,0,1-.46,0,2.72,2.72,0,0,1-2.22-3.13l2.66-15.44a2.7,2.7,0,0,1,3.82-2l11,5.13,2-11.93a2.71,2.71,0,0,1,3.83-2l14.17,6.64a2.72,2.72,0,0,1-2.3,4.92L118.5,608l-2,11.92a2.71,2.71,0,0,1-3.83,2l-11-5.13L99.6,628.7A2.71,2.71,0,0,1,96.93,631Z"/><path class="cls-1" d="M541.82,129a2.77,2.77,0,0,1-.49,0l-22.66-4.13a2.72,2.72,0,0,1-2-3.84l8.42-17.57L506,100A2.71,2.71,0,0,1,504,98.52a2.75,2.75,0,0,1,0-2.41l10-20.75a2.71,2.71,0,1,1,4.89,2.35l-8.43,17.55,19.15,3.48a2.71,2.71,0,0,1,2,3.84l-8.43,17.57,19.17,3.49a2.71,2.71,0,0,1-.49,5.38Z"/><path class="cls-1" d="M529.1,226.74a2.71,2.71,0,0,1-2.64-2.07l-5.06-20.81a2.73,2.73,0,0,1,.53-2.35,2.6,2.6,0,0,1,2.19-1L542,201l-4.22-17.35a2.72,2.72,0,0,1,.52-2.35,2.68,2.68,0,0,1,2.19-1l21.4.63a2.71,2.71,0,1,1-.16,5.42l-17.84-.52,4.23,17.35a2.73,2.73,0,0,1-.53,2.35,2.66,2.66,0,0,1-2.19,1L527.52,206l4.22,17.36a2.72,2.72,0,0,1-2,3.28A2.85,2.85,0,0,1,529.1,226.74Z"/><path class="cls-1" d="M723.28,632.25a2.94,2.94,0,0,1-.51,0,2.73,2.73,0,0,1-1.92-1.46l-7.5-15.1-12.58,11.22a2.69,2.69,0,0,1-2.32.65,2.75,2.75,0,0,1-1.92-1.46l-9.07-18.28a2.72,2.72,0,0,1,4.87-2.42l7.48,15.09,12.58-11.22a2.76,2.76,0,0,1,2.32-.64,2.73,2.73,0,0,1,1.92,1.46l7.5,15.1,12.59-11.22a2.71,2.71,0,0,1,3.61,4.05l-15.24,13.59A2.71,2.71,0,0,1,723.28,632.25Z"/><path class="cls-1" d="M247.35,399.64a2.15,2.15,0,0,1-.43,0,2.71,2.71,0,0,1-2.25-3.11l.25-1.51-1.53.17a2.71,2.71,0,0,1-3-3.13l.24-1.52-1.53.17a2.72,2.72,0,0,1-.59-5.4l5.07-.55a2.71,2.71,0,0,1,3,3.13l-.24,1.52,1.53-.17a2.71,2.71,0,0,1,3,3.13l-.81,5A2.71,2.71,0,0,1,247.35,399.64Z"/><path class="cls-1" d="M161.06,275.67a2.56,2.56,0,0,1-1-.2,2.71,2.71,0,0,1-1.51-3.53l.38-.92-1-.12a2.7,2.7,0,0,1-2-1.3,2.74,2.74,0,0,1-.19-2.4l.38-.94-1-.11a2.72,2.72,0,0,1,.63-5.4l4.53.52a2.71,2.71,0,0,1,2,1.31,2.74,2.74,0,0,1,.19,2.4l-.38.93,1,.12a2.72,2.72,0,0,1,2.21,3.71l-1.7,4.23A2.7,2.7,0,0,1,161.06,275.67Z"/><path class="cls-1" d="M254.48,163.91l-.32,0a2.72,2.72,0,0,1-2.39-3l1.11-9.59-9.55,1.48A2.74,2.74,0,0,1,241,152a2.69,2.69,0,0,1-.81-2.26l1.09-9.61-9.55,1.48a2.72,2.72,0,0,1-.83-5.37l13.07-2a2.72,2.72,0,0,1,3.11,3l-1.1,9.61,9.56-1.48a2.7,2.7,0,0,1,2.29.72,2.75,2.75,0,0,1,.82,2.27l-1.51,13.13A2.72,2.72,0,0,1,254.48,163.91Z"/><path class="cls-1" d="M75.06,27.44h-.25a2.73,2.73,0,0,1-2.46-2.95l.91-10.2a2.72,2.72,0,0,1,1.26-2A2.66,2.66,0,0,1,76.91,12l6.27,2.33.59-6.66a2.7,2.7,0,0,1,3.65-2.3L97,8.92A2.71,2.71,0,0,1,95.12,14l-6.26-2.33-.59,6.65A2.72,2.72,0,0,1,87,20.38a2.66,2.66,0,0,1-2.39.25L78.35,18.3,77.76,25A2.72,2.72,0,0,1,75.06,27.44Z"/><path class="cls-1" d="M579,685.49a2.72,2.72,0,0,1-1.53-.47l-18.87-12.87a2.71,2.71,0,0,1-1.18-2.1,2.68,2.68,0,0,1,.95-2.21l14.68-12.51-15.93-10.86a2.72,2.72,0,0,1-.23-4.31l17.39-14.79a2.71,2.71,0,1,1,3.52,4.13L563.14,642l15.93,10.86a2.72,2.72,0,0,1,.23,4.31l-14.68,12.51,15.93,10.86a2.71,2.71,0,0,1-1.53,5Z"/><path class="cls-1" d="M197.26,310.72a2.71,2.71,0,0,1-2.48-1.61l-1-2.3-1.95,1.6a2.68,2.68,0,0,1-2.34.55,2.73,2.73,0,0,1-1.86-1.53l-1-2.3-1.95,1.6a2.71,2.71,0,1,1-3.44-4.2l4.69-3.86a2.74,2.74,0,0,1,2.34-.54,2.69,2.69,0,0,1,1.86,1.53l1,2.3,2-1.6a2.71,2.71,0,0,1,4.2,1l2.48,5.54a2.72,2.72,0,0,1-2.47,3.83Z"/><path class="cls-1" d="M161.68,212.37h-.09l-12.74-.4a2.71,2.71,0,0,1,.16-5.42l9.2.29-2.16-8.94a2.71,2.71,0,0,1,.53-2.35,2.68,2.68,0,0,1,2.19-1l9.2.28-2.15-8.95a2.72,2.72,0,1,1,5.28-1.27l3,12.41a2.7,2.7,0,0,1-.53,2.34,2.59,2.59,0,0,1-2.19,1l-9.2-.28,2.16,9a2.73,2.73,0,0,1-2.64,3.35Z"/><path class="cls-1" d="M7.72,160.92a2.72,2.72,0,0,1-1.23-5.14L10.1,154l-2.71-3a2.71,2.71,0,0,1,.78-4.24l3.62-1.83-2.72-3a2.72,2.72,0,1,1,4-3.65l5.1,5.65a2.71,2.71,0,0,1-.79,4.24L13.8,150l2.72,3a2.71,2.71,0,0,1-.79,4.25l-6.79,3.43A2.8,2.8,0,0,1,7.72,160.92Z"/><path class="cls-1" d="M744.35,454.58a2.94,2.94,0,0,1-.71-.09,2.73,2.73,0,0,1-1.91-3.34l.5-1.82h-1.89a2.72,2.72,0,0,1-2.62-3.43l.5-1.83h-1.89a2.72,2.72,0,0,1,0-5.43h5.45a2.72,2.72,0,0,1,2.62,3.43l-.49,1.82h1.89a2.73,2.73,0,0,1,2.62,3.43L747,452.58A2.71,2.71,0,0,1,744.35,454.58Z"/><path class="cls-1" d="M705.85,382.84a2.71,2.71,0,0,1-2.71-2.57l-.28-5-4.76,1.59a2.71,2.71,0,0,1-2.38-.32,2.75,2.75,0,0,1-1.19-2.1l-.47-8.56a2.71,2.71,0,0,1,5.42-.29l.28,5,4.75-1.59a2.7,2.7,0,0,1,3.57,2.42l.28,5,4.76-1.59a2.71,2.71,0,0,1,1.72,5.15l-8.13,2.71A2.55,2.55,0,0,1,705.85,382.84Z"/><path class="cls-1" d="M443,565.08a2.69,2.69,0,0,1-1.69-.6l-12.74-10.2A2.71,2.71,0,0,1,432,550l10,8L447,546.3a2.72,2.72,0,0,1,1.84-1.56,2.69,2.69,0,0,1,2.35.51l10,8,5.06-11.73a2.71,2.71,0,1,1,5,2.15l-6.47,15a2.71,2.71,0,0,1-4.18,1.05l-10-8-5.06,11.73a2.69,2.69,0,0,1-1.83,1.55A2.5,2.5,0,0,1,443,565.08Z"/><path class="cls-1" d="M579.88,256.69a2.84,2.84,0,0,1-1-.17l-23.72-8.95a2.71,2.71,0,1,1,1.91-5.08l20.39,7.69,2-21.71a2.71,2.71,0,0,1,3.66-2.28l20.41,7.68,2-21.72a2.71,2.71,0,1,1,5.4.5l-2.36,25.26A2.71,2.71,0,0,1,605,240.2l-20.41-7.68-2,21.71a2.72,2.72,0,0,1-2.71,2.46Z"/><path class="cls-1" d="M513.53,746.89l-.37,0-7.45-1a2.72,2.72,0,1,1,.74-5.38l3.92.54-.52-3.93a2.71,2.71,0,0,1,3.06-3l3.93.54-.51-3.94a2.71,2.71,0,0,1,5.38-.71l1,7.46a2.75,2.75,0,0,1-.77,2.28,2.71,2.71,0,0,1-2.29.77l-3.93-.54.52,3.93a2.72,2.72,0,0,1-2.69,3.07Z"/></g></g></svg>