<svg xmlns="http://www.w3.org/2000/svg" viewBox="0 0 415.23 326.57"><defs><style>.cls-1{fill:#ebebeb;}.cls-2{fill:#e0e0e0;}.cls-3{fill:#810064;}.cls-4{opacity:0.8;}.cls-5{fill:#fff;}.cls-6{opacity:0.4;}.cls-7{fill:#b7cfd9;}.cls-8{fill:#263238;}.cls-9{fill:#455a64;}.cls-10{fill:#ffbe9d;}.cls-11{fill:#eb996e;}.cls-12{opacity:0.3;}</style></defs><g id="Livello_2" data-name="Livello 2"><g id="Background_Complete" data-name="Background Complete"><path class="cls-1" d="M209.6,259.64A21,21,0,0,0,230.3,288c-1.92-12.59-6.76-24.54-20.7-28.36"/><path class="cls-2" d="M207.63,253.47c.08,0,.42,1.37,1.15,3.57a51.83,51.83,0,0,0,8.48,15.82c1.43,1.82,2.4,2.88,2.34,2.94a3.82,3.82,0,0,1-.76-.68,27.3,27.3,0,0,1-1.86-2,43.81,43.81,0,0,1-8.55-15.94c-.32-1.12-.55-2-.66-2.68A3.25,3.25,0,0,1,207.63,253.47Z"/></g><g id="Capa_8" data-name="Capa 8"><path class="cls-3" d="M357.9,197c-6.32-35.25-36.59-66-72.28-68.93-19.44-1.59-39,4.55-58.37,2.21a68,68,0,0,1-42.48-22.41c-16-18.2-21.42-44.09-38.35-61.41-23.34-23.88-64.08-24.26-92.48-6.69S8.38,89,.52,121.47l-.31,9.87C-1.5,165,7.35,204.13,26.88,234.14c19.79,30.39,32.8,42.94,68.86,64.8,30.62,18.56,90.58,26.72,126.38,27.59s72.58-9.81,99.5-33.42S364.21,232.22,357.9,197Z"/><g class="cls-4"><path class="cls-5" d="M357.9,197c-6.32-35.25-36.59-66-72.28-68.93-19.44-1.59-39,4.55-58.37,2.21a68,68,0,0,1-42.48-22.41c-16-18.2-21.42-44.09-38.35-61.41-23.34-23.88-64.08-24.26-92.48-6.69S8.38,89,.52,121.47l-.31,9.87C-1.5,165,7.35,204.13,26.88,234.14c19.79,30.39,32.8,42.94,68.86,64.8,30.62,18.56,90.58,26.72,126.38,27.59s72.58-9.81,99.5-33.42S364.21,232.22,357.9,197Z"/></g><path class="cls-3" d="M43.54,228.35a21,21,0,0,0,3.39,35c4.76-11.81,6.68-24.56-3.39-35"/><path class="cls-3" d="M45,222c.08,0-.33,1.4-.82,3.66a51.69,51.69,0,0,0-.75,17.94c.3,2.29.59,3.7.51,3.72a4.61,4.61,0,0,1-.31-1c-.17-.63-.37-1.55-.57-2.7a43.94,43.94,0,0,1,.76-18.07c.29-1.13.57-2,.79-2.64A4,4,0,0,1,45,222Z"/><path class="cls-3" d="M285.24,316.24a12.65,12.65,0,0,0,21,2.37c-6.36-4.28-13.64-7-21-2.37"/><path class="cls-3" d="M281.7,314.6a59.63,59.63,0,0,0,7.2,2.64,58.23,58.23,0,0,0,7.58,1.14,7.37,7.37,0,0,1-2.27.14,25.63,25.63,0,0,1-5.44-.78,24.26,24.26,0,0,1-5.14-1.93A8,8,0,0,1,281.7,314.6Z"/></g><g id="_404" data-name="404"><path class="cls-3" d="M254.84,187.62q.49,51.66-22.52,79t-63,27.71q-40.2.38-63.91-26.49T81.16,189.29l-.58-60.56q-.49-51.45,22.52-79t63.21-27.89q40-.39,63.73,26.67t24.22,78.52ZM210,120.7q-.31-32.52-11.37-48t-32-15.32q-20.91.19-31.58,15.93t-10.36,48.25l.71,73.59q.3,32.7,11.46,48.31T169,258.83q20.91-.19,31.49-15.93t10.27-48.61Z"/><g class="cls-6"><path d="M254.84,187.62q.49,51.66-22.52,79t-63,27.71q-40.2.38-63.91-26.49T81.16,189.29l-.58-60.56q-.49-51.45,22.52-79t63.21-27.89q40-.39,63.73,26.67t24.22,78.52ZM210,120.7q-.31-32.52-11.37-48t-32-15.32q-20.91.19-31.58,15.93t-10.36,48.25l.71,73.59q.3,32.7,11.46,48.31T169,258.83q20.91-.19,31.49-15.93t10.27-48.61Z"/></g><path class="cls-3" d="M280.3,187.38q.49,51.65-22.52,79t-63,27.7q-40.2.39-63.91-26.48t-24.22-78.52L106,128.49q-.5-51.46,22.52-79t63.21-27.89q40-.37,63.73,26.67t24.21,78.52Zm-44.84-66.92q-.32-32.52-11.38-48t-32-15.32Q171.2,57.29,160.53,73t-10.36,48.25l.7,73.58q.31,32.71,11.47,48.32t32.07,15.41q20.91-.19,31.49-15.93T236.17,194Z"/><path class="cls-3" d="M106.22,132.09c0,.13-5.86,2.48-13.2,5.24s-13.34,4.89-13.39,4.75,5.86-2.48,13.21-5.24S106.17,132,106.22,132.09Z"/><path class="cls-3" d="M107.69,156c0,.13-5.86,2.48-13.2,5.24S81.15,166.15,81.1,166s5.86-2.48,13.21-5.24S107.64,155.88,107.69,156Z"/><path class="cls-3" d="M109.16,180c0,.13-5.86,2.48-13.2,5.24s-13.34,4.89-13.39,4.75,5.86-2.48,13.2-5.24S109.11,179.81,109.16,180Z"/><path class="cls-3" d="M110.63,203.88c.05.13-5.86,2.48-13.2,5.24S84.09,214,84,213.87s5.86-2.48,13.2-5.24S110.58,203.74,110.63,203.88Z"/><path class="cls-3" d="M112.1,227.81a4.14,4.14,0,0,1-.91.45c-.61.26-1.48.62-2.57,1.05-2.17.87-5.19,2-8.53,3.29s-6.38,2.37-8.59,3.14c-1.1.39-2,.7-2.62.9a3.44,3.44,0,0,1-1,.26,4.43,4.43,0,0,1,.92-.45c.6-.26,1.48-.62,2.56-1,2.18-.87,5.19-2,8.54-3.29s6.37-2.36,8.58-3.14c1.1-.39,2-.7,2.62-.9A3.61,3.61,0,0,1,112.1,227.81Z"/><path class="cls-3" d="M118.94,249.7a21.24,21.24,0,0,1-3,1.33c-1.89.76-4.52,1.78-7.44,2.88s-5.56,2.06-7.49,2.73a19.53,19.53,0,0,1-3.16,1,21.24,21.24,0,0,1,3-1.33c1.89-.76,4.52-1.78,7.44-2.88s5.56-2.06,7.49-2.73A19.53,19.53,0,0,1,118.94,249.7Z"/><path class="cls-3" d="M133.56,269.78a15.32,15.32,0,0,1-2.69,1.21c-1.68.68-4,1.59-6.62,2.57s-5,1.83-6.68,2.43a16.55,16.55,0,0,1-2.82.86,16.29,16.29,0,0,1,2.69-1.21c1.69-.68,4-1.59,6.63-2.57s5-1.83,6.67-2.43A16.55,16.55,0,0,1,133.56,269.78Z"/><path class="cls-3" d="M157.87,283a16.91,16.91,0,0,1-2.69,1.2c-1.68.69-4,1.6-6.62,2.57s-5,1.84-6.68,2.43a15.53,15.53,0,0,1-2.81.86,17,17,0,0,1,2.68-1.2c1.69-.69,4-1.6,6.63-2.57s5-1.84,6.67-2.43A15.74,15.74,0,0,1,157.87,283Z"/><path class="cls-3" d="M231.2,231.88c.05.14-7.54,3.68-17,7.91s-17.1,7.56-17.16,7.43,7.53-3.67,16.95-7.9S231.14,231.75,231.2,231.88Z"/><path class="cls-3" d="M236.17,211.38c.06.13-6.2,3.08-14,6.58S208,224.19,208,224.06s6.21-3.08,14-6.58S236.12,211.25,236.17,211.38Z"/><path class="cls-3" d="M238.47,188.35c.05.13-6.21,3.07-14,6.57s-14.15,6.24-14.21,6.11,6.21-3.08,14-6.58S238.41,188.22,238.47,188.35Z"/><path class="cls-3" d="M240.76,165.32c.06.13-6.21,3.07-14,6.57s-14.15,6.24-14.21,6.1,6.21-3.07,14-6.57S240.7,165.18,240.76,165.32Z"/><path class="cls-3" d="M243.05,142.28c.06.13-6.21,3.08-14,6.58s-14.15,6.23-14.21,6.1,6.21-3.07,14-6.57S243,142.15,243.05,142.28Z"/><path class="cls-3" d="M238.47,121.77c.05.13-6.21,3.08-14,6.58s-14.15,6.23-14.21,6.1,6.21-3.07,14-6.58S238.41,121.64,238.47,121.77Z"/><path class="cls-3" d="M238.47,99.69c.05.13-6.21,3.08-14,6.58s-14.15,6.23-14.21,6.1,6.21-3.07,14-6.58S238.41,99.56,238.47,99.69Z"/><path class="cls-3" d="M236.17,78.9c.06.13-6.2,3.07-14,6.58S208,91.71,208,91.58s6.21-3.08,14-6.58S236.12,78.77,236.17,78.9Z"/><path class="cls-3" d="M216.42,64.41a81.6,81.6,0,0,1-8.47,4.1,87.08,87.08,0,0,1-8.68,3.62,84.09,84.09,0,0,1,8.47-4.1A84.89,84.89,0,0,1,216.42,64.41Z"/><path class="cls-3" d="M205.86,55.54a82.88,82.88,0,0,1-8.47,4.09,85.54,85.54,0,0,1-8.69,3.62,87.77,87.77,0,0,1,8.48-4.09A84.89,84.89,0,0,1,205.86,55.54Z"/><path class="cls-3" d="M107.36,103.08c0,.14-5.86,2.48-13.21,5.24s-13.34,4.89-13.39,4.75,5.86-2.48,13.21-5.24S107.31,103,107.36,103.08Z"/><path class="cls-3" d="M114.72,73.24c0,.13-6.36,2.67-14.32,5.66S86,84.2,85.9,84.07s6.36-2.67,14.32-5.66S114.67,73.1,114.72,73.24Z"/><path class="cls-3" d="M133.94,43.7c.05.14-8.08,3.32-18.16,7.1s-18.29,6.75-18.34,6.62,8.08-3.32,18.16-7.1S133.89,43.57,133.94,43.7Z"/><path class="cls-5" d="M276,232.22a3.19,3.19,0,0,1-.42-.15l-1.21-.46c-.53-.2-1.22-.35-2-.57a19.41,19.41,0,0,0-2.84-.34c-4.27-.28-10.67,1.28-16.86,5.91a48.22,48.22,0,0,0-8.93,8.83c-2.87,3.51-5.67,7.48-8.86,11.49a52.88,52.88,0,0,1-11.53,11.17,41.83,41.83,0,0,1-15.94,6.46A41.14,41.14,0,0,1,190.2,274a80.6,80.6,0,0,1-15.06-5.59c-4.64-2.15-9-4.34-13.14-6.15a69.42,69.42,0,0,0-11.92-4.05,44,44,0,0,0-10.3-1.19,31.41,31.41,0,0,0-7.75,1.05,28.05,28.05,0,0,0-4.61,1.81l-1.15.61-.4.19a2.5,2.5,0,0,1,.38-.24l1.12-.65a25.14,25.14,0,0,1,4.6-1.91,30.88,30.88,0,0,1,7.8-1.15,43.89,43.89,0,0,1,10.39,1.12,68,68,0,0,1,12,4c4.19,1.79,8.53,4,13.17,6.11a82,82,0,0,0,15,5.53,40.49,40.49,0,0,0,17,.55,41.27,41.27,0,0,0,15.75-6.37,52.26,52.26,0,0,0,11.43-11c3.19-4,6-7.95,8.91-11.46a48,48,0,0,1,9.05-8.86c6.27-4.64,12.77-6.16,17.08-5.82a18.94,18.94,0,0,1,2.86.4c.8.24,1.49.4,2,.62l1.19.51A2.28,2.28,0,0,1,276,232.22Z"/><path class="cls-5" d="M282.29,165.47c0,.05-.71.15-1.94.56a19,19,0,0,0-4.83,2.58c-1.91,1.33-4,3.19-6.41,5.12a46.67,46.67,0,0,1-8.6,5.28,47.27,47.27,0,0,1-17.66,4.57c-1.17.09-2.23.06-3.16.08s-1.74,0-2.39-.1l-1.5-.16a1.88,1.88,0,0,1-.52-.09,2.67,2.67,0,0,1,.53,0l1.5,0,2.38,0c.92-.05,2,0,3.13-.16a49.05,49.05,0,0,0,17.47-4.67,47.86,47.86,0,0,0,8.52-5.19c2.43-1.89,4.54-3.73,6.5-5a17.87,17.87,0,0,1,5-2.48,11,11,0,0,1,1.48-.32A2,2,0,0,1,282.29,165.47Z"/><path class="cls-5" d="M151.67,188.64a2,2,0,0,1-.55-.08c-.36-.08-.89-.16-1.56-.35a23.53,23.53,0,0,1-5.35-2.35,52.88,52.88,0,0,1-7-5.11c-2.52-2.07-5.19-4.45-8.27-6.57a28.9,28.9,0,0,0-23.72-4.29c-1.33.34-2,.6-2.07.55a2.05,2.05,0,0,1,.51-.23,14.7,14.7,0,0,1,1.5-.51,25.31,25.31,0,0,1,5.76-1,28.21,28.21,0,0,1,18.32,5.1c3.11,2.15,5.79,4.54,8.27,6.63a57.34,57.34,0,0,0,6.89,5.17,26,26,0,0,0,5.22,2.47A20.86,20.86,0,0,1,151.67,188.64Z"/><path class="cls-5" d="M151.84,94.11a10.63,10.63,0,0,1-1.66.61c-.54.19-1.21.4-2,.6s-1.68.46-2.69.64-2.1.43-3.29.58-2.47.29-3.82.41a59.45,59.45,0,0,1-8.81-.1,59,59,0,0,1-8.67-1.54c-1.3-.37-2.54-.7-3.68-1.12S115,93.4,114.09,93s-1.78-.79-2.51-1.14-1.36-.67-1.86-1A12.55,12.55,0,0,1,108.2,90a11.88,11.88,0,0,1,1.62.73c.51.26,1.13.56,1.88.87s1.57.71,2.53,1.06,2,.76,3.13,1.11,2.37.71,3.66,1.06a62.64,62.64,0,0,0,8.6,1.49,63,63,0,0,0,8.73.14c1.33-.11,2.61-.18,3.79-.36s2.28-.33,3.28-.51,1.9-.39,2.69-.57,1.46-.34,2-.5A13,13,0,0,1,151.84,94.11Z"/><path class="cls-5" d="M276.62,93.86a2.22,2.22,0,0,1-.43-.2L275,93a16.57,16.57,0,0,0-1.86-1,27.91,27.91,0,0,0-2.53-1.19l-1.5-.63c-.52-.21-1.09-.37-1.67-.57-1.14-.42-2.41-.71-3.74-1a41.18,41.18,0,0,0-17.68-.16c-1.33.32-2.6.59-3.75,1-.58.19-1.15.34-1.68.54l-1.52.6c-1,.35-1.8.8-2.55,1.15a18.31,18.31,0,0,0-1.87,1l-1.17.65a2.22,2.22,0,0,1-.43.2s.12-.12.37-.29l1.13-.74a14.91,14.91,0,0,1,1.84-1.06A27.69,27.69,0,0,1,239,90.16l1.52-.63c.53-.22,1.1-.38,1.68-.58a38.24,38.24,0,0,1,3.79-1,40.11,40.11,0,0,1,17.89.16c1.34.36,2.62.67,3.77,1.11.58.21,1.15.39,1.68.61l1.5.66a26.72,26.72,0,0,1,2.52,1.27,17.57,17.57,0,0,1,1.83,1.1l1.11.76A2.1,2.1,0,0,1,276.62,93.86Z"/><path class="cls-5" d="M215.48,25.94a6.06,6.06,0,0,1-.73.43l-2.12,1.15c-1.85,1-4.53,2.39-7.88,4.07-6.7,3.32-16.12,7.84-27.26,10.66a73.94,73.94,0,0,1-16,2.22,57.47,57.47,0,0,1-13.14-1.12,46.1,46.1,0,0,1-8.49-2.6c-1-.38-1.7-.78-2.2-1a4.09,4.09,0,0,1-.74-.39,5.53,5.53,0,0,1,.78.3c.52.19,1.24.56,2.23.91a49,49,0,0,0,8.5,2.42,58.36,58.36,0,0,0,13,1,76.37,76.37,0,0,0,15.88-2.24c11.07-2.81,20.48-7.26,27.22-10.49l7.95-3.92,2.17-1.07A4.42,4.42,0,0,1,215.48,25.94Z"/><path class="cls-7" d="M278.75,128.71l-7-1.1-43.38-14L203,106.29a27.32,27.32,0,0,0-21.95,1.5c-12,6.11-45.05,36.88-45.05,36.88l23.81,24.55L148.6,218.9c12.55,35.69,37.12,39.77,37.12,39.77a87.1,87.1,0,0,0,35.21-5.82c22.81-8.7,46.77-29.09,49.77-37.86,1.8-5.26,3.28-16.32,4.46-28.81l36.13-14.72,9.79-50Z"/><path class="cls-8" d="M226,217.14s-.11.13-.35.31a13.26,13.26,0,0,1-1.08.8,24.33,24.33,0,0,1-4.34,2.33,26.48,26.48,0,0,1-30-6.54,24.19,24.19,0,0,1-3-3.93,12.75,12.75,0,0,1-.65-1.17c-.14-.28-.21-.42-.19-.43s.36.53,1,1.49a28,28,0,0,0,3.07,3.78,26.79,26.79,0,0,0,29.55,6.46,28.49,28.49,0,0,0,4.37-2.16C225.44,217.47,226,217.11,226,217.14Z"/><path class="cls-8" d="M212.28,115.68a2.46,2.46,0,0,1,.07.24c.05.19.11.42.18.71.15.62.36,1.55.61,2.74a65.7,65.7,0,0,1,1.43,10.23,32.43,32.43,0,0,1-.41,7.15,22.75,22.75,0,0,1-2.85,7.7,30.28,30.28,0,0,1-5.93,6.87c-2.35,2.1-4.95,4.05-7.6,6.06-5.63,4.23-11.12,8.06-16,11.54s-9.23,6.6-12.69,9.21l-.11.09-.11-.09a74.8,74.8,0,0,1-6.94-6.25,19.61,19.61,0,0,1-1.63-1.92,6.38,6.38,0,0,1-.35-.54c-.08-.13-.11-.19-.1-.2s.18.24.53.68a23.54,23.54,0,0,0,1.69,1.85,84,84,0,0,0,7,6.11h-.21c3.43-2.67,7.73-5.84,12.63-9.33s10.37-7.34,16-11.57c2.64-2,5.24-4,7.57-6a30.22,30.22,0,0,0,5.86-6.74,22.81,22.81,0,0,0,2.84-7.53,32.92,32.92,0,0,0,.47-7A74.15,74.15,0,0,0,213,119.41c-.22-1.17-.4-2.09-.52-2.76-.05-.29-.09-.52-.13-.72A.93.93,0,0,1,212.28,115.68Z"/><path class="cls-8" d="M400.6,138.2c10.16-8.71,13.59-24.37,8-36.53L394.3,100.2a20.41,20.41,0,0,0,10.4-20.59,27.31,27.31,0,0,1-31.23,5.75c-6.68-3.3-12.09-9.45-19.44-10.74-6.66-1.17-13.21,1.95-19.58,4.22s-14.11,3.51-19.39-.71c-4.18-3.36-5.48-9.23-5.21-14.58S311.67,53,312,47.61A36.18,36.18,0,0,0,300.42,19.4,27.46,27.46,0,0,0,257.31,5.68c-3.13,2.43-5.78,5.55-9.32,7.3-4,2-8.67,2-13,3.05s-8.89,3.94-9.36,8.39l-1.74,9.11c-.3.65-.61,1.3-1,1.92-3.69,6.46-11.23,10.72-12.88,18-.92,4.07.23,8.47-1.15,12.41-1.8,5.19-7.4,8.11-10,12.94-3.59,6.64-1.15,18.27,4.57,23.17s17.55,10.11,24.92,11.67c2-7.67,3.77-15.86,5.49-24.26,3,2.89,6.16,5.65,9.3,8.37,8.22,7.14,16.6,14.39,22.3,23.67,10.84,17.62,11,41,24.65,56.53,2.68,3,5.92,5.77,9.8,6.94s8.48.56,11.36-2.31c3.38-3.38,3.82-9.08,7.57-12.05,5-3.95,12.26-.8,17.62,2.63,3.87,2.48,7.75,5.1,12.15,6.46s9.5,1.27,13.24-1.41,5.38-8.4,2.69-12.13c-1.08-1.49-2.69-2.53-3.76-4s-1.38-3.87.08-5c1.62-1.23,3.88,0,5.64,1a33.5,33.5,0,0,0,48.73-18.13A27.81,27.81,0,0,1,400.6,138.2Z"/><path class="cls-8" d="M391.69,59.72a11,11,0,0,1,1.3,1.11,14.92,14.92,0,0,1,2.94,3.89,10.6,10.6,0,0,1,1.1,3.37,7.81,7.81,0,0,1-.48,4.18A8,8,0,0,1,393.47,76a6,6,0,0,1-2.52.9,5.77,5.77,0,0,1-2.8-.4c-3.71-1.52-5.57-5.8-9.59-7.72s-8.91-2.21-13.71-1.11-9.49,3.71-14.22,6.37-9.76,5.51-15.55,6.5a21.65,21.65,0,0,1-8.6-.06,16.42,16.42,0,0,1-4-1.48,15.24,15.24,0,0,1-3.35-2.48,19,19,0,0,1-4.31-6.82,30.73,30.73,0,0,1-1.76-7.52c-.53-5-.12-9.79-.07-14.23a41.51,41.51,0,0,0-1.21-12.22,27.72,27.72,0,0,0-1.91-5,28.3,28.3,0,0,0-2.42-4.12,30.57,30.57,0,0,0-5.12-5.71,33.37,33.37,0,0,0-3.9-2.88l-1.09-.65a2.25,2.25,0,0,1-.37-.23,1.62,1.62,0,0,1,.39.19l1.12.6a29.21,29.21,0,0,1,4,2.82,29.94,29.94,0,0,1,5.23,5.69,29.18,29.18,0,0,1,2.48,4.15,27.92,27.92,0,0,1,2,5.05A41.91,41.91,0,0,1,313.45,48c0,4.46-.44,9.22.1,14.17a31,31,0,0,0,1.75,7.4,18.59,18.59,0,0,0,4.2,6.63,14.78,14.78,0,0,0,3.25,2.4A16,16,0,0,0,326.6,80,21.52,21.52,0,0,0,335,80c5.68-1,10.66-3.79,15.39-6.43s9.41-5.27,14.36-6.4a24.78,24.78,0,0,1,7.33-.61,19.11,19.11,0,0,1,3.49.56,16,16,0,0,1,3.2,1.25c4.15,2,6,6.34,9.53,7.76a5.36,5.36,0,0,0,5-.45,7.73,7.73,0,0,0,3.49-7.59,11.1,11.1,0,0,0-1-3.31,15.21,15.21,0,0,0-2.84-3.91c-.38-.4-.69-.69-.91-.88A2.87,2.87,0,0,1,391.69,59.72Z"/><path class="cls-8" d="M228.23,117.44s0-.15-.09-.45a7.56,7.56,0,0,0-.26-1.31,11.34,11.34,0,0,0-2.46-4.46,19.06,19.06,0,0,0-6.63-4.61c-2.9-1.33-6.49-2-10.44-2.72s-8.4-1.58-12.42-4.26A18.43,18.43,0,0,1,193,71.52c4.14-4.25,10-6.36,14.77-10.09a18.75,18.75,0,0,0,3.15-3.21,13.27,13.27,0,0,0,1.92-3.95c.79-2.84.73-5.81,1-8.7a18.62,18.62,0,0,1,.8-4.27,10.79,10.79,0,0,1,2.1-3.74,15,15,0,0,1,7.16-4c2.57-.75,5.12-1.21,7.54-1.88A20.59,20.59,0,0,0,238,28.76,25.68,25.68,0,0,0,243,24.14a54.52,54.52,0,0,0,3.72-5.07c2.21-3.34,4.1-6.47,6.11-9a28.7,28.7,0,0,1,5.84-5.75A15.93,15.93,0,0,1,263.22,2,11.2,11.2,0,0,1,265,1.54s-.6.15-1.72.54a16.73,16.73,0,0,0-4.51,2.43A29.18,29.18,0,0,0,253,10.28c-2,2.5-3.83,5.62-6,9a56.29,56.29,0,0,1-3.72,5.11,25.91,25.91,0,0,1-5,4.72,21,21,0,0,1-6.71,3c-2.44.68-5,1.16-7.53,1.9a14.53,14.53,0,0,0-6.92,3.85,10.31,10.31,0,0,0-2,3.56,19.23,19.23,0,0,0-.78,4.16c-.26,2.86-.19,5.86-1,8.8a14,14,0,0,1-2,4.12,19.15,19.15,0,0,1-3.24,3.31,69.77,69.77,0,0,1-7.69,4.88,33.39,33.39,0,0,0-7.05,5.15,18,18,0,0,0,2.82,27.4c3.91,2.64,8.35,3.47,12.25,4.26s7.56,1.45,10.49,2.81a19.07,19.07,0,0,1,6.66,4.74,11.19,11.19,0,0,1,2.41,4.57,7.15,7.15,0,0,1,.22,1.33C228.23,117.29,228.23,117.44,228.23,117.44Z"/><path class="cls-9" d="M308.07,27.67s-.29,0-.77-.19a20,20,0,0,1-2-.81,26.25,26.25,0,0,1-6-3.87,26.16,26.16,0,0,1-4.71-5.32,15.76,15.76,0,0,1-1.1-1.86,2.31,2.31,0,0,1-.31-.73c.08,0,.64.93,1.71,2.38a31.73,31.73,0,0,0,4.75,5.14,31.73,31.73,0,0,0,5.79,3.93C307.06,27.18,308.1,27.59,308.07,27.67Z"/><path class="cls-9" d="M341.31,95.88s-.63-.16-1.76-.4a28.66,28.66,0,0,0-4.85-.6,64.91,64.91,0,0,0-7.27.21c-2.73.19-5.75.47-8.95.4a24.26,24.26,0,0,1-8.82-1.66,15.59,15.59,0,0,1-5.92-4.32,11.19,11.19,0,0,1-2.28-4.39,8.68,8.68,0,0,1-.21-1.33,2.38,2.38,0,0,1,0-.47c.06,0,.09.64.42,1.75a11.55,11.55,0,0,0,2.36,4.2,15.65,15.65,0,0,0,5.82,4.12A24.33,24.33,0,0,0,318.5,95c3.15.07,6.16-.19,8.9-.36a59,59,0,0,1,7.32-.09,25.44,25.44,0,0,1,4.88.76c.56.16,1,.3,1.28.41S341.32,95.86,341.31,95.88Z"/><path class="cls-9" d="M400.25,141.35a1.88,1.88,0,0,1-.29.13,4.52,4.52,0,0,1-.9.29,7,7,0,0,1-3.58-.16,11.54,11.54,0,0,1-4.8-3,19.92,19.92,0,0,1-3.85-6.46c-1.1-2.57-2-5.51-3.79-8.23a21.65,21.65,0,0,0-3.18-3.87,25.38,25.38,0,0,0-4.24-3.21c-6.28-3.78-14.53-5.34-22.95-4.84s-16.44,2.1-23.81,2.62a47.08,47.08,0,0,1-19.4-2,26.75,26.75,0,0,1-11.12-7A13.17,13.17,0,0,1,297,104a9,9,0,0,1-.87-1.25l-.49-.8a1.37,1.37,0,0,1-.14-.28s.07.08.19.25l.53.77a9.81,9.81,0,0,0,.9,1.21,13.53,13.53,0,0,0,1.35,1.55,27.06,27.06,0,0,0,11.1,6.76,47.16,47.16,0,0,0,19.25,1.88c7.33-.54,15.29-2.21,23.81-2.66s16.85,1.08,23.23,5a25.81,25.81,0,0,1,4.31,3.29,21.32,21.32,0,0,1,3.22,4c1.81,2.79,2.7,5.76,3.77,8.32a19.75,19.75,0,0,0,3.72,6.4,11.29,11.29,0,0,0,4.65,3,7.17,7.17,0,0,0,3.5.26C399.84,141.52,400.23,141.31,400.25,141.35Z"/><path class="cls-10" d="M243,27.67a7.47,7.47,0,0,0-7.62,6.64h0l-8.09,84.21c-1.4,11.84,14.09,37.23,26.78,38.63h0c12.82,1.42,14.07-4.79,15.74-16,2.78-18.74,3.7-25.8,3.69-25.69s16.51-.55,22.63-21.18c3-10.26,4.78-27.51,5.74-41.67.87-12.75-5.46-29.36-18.23-29.68Z"/><path class="cls-8" d="M296.26,63.76a2.72,2.72,0,0,1-3,2.38,2.59,2.59,0,0,1-2.46-2.8,2.71,2.71,0,0,1,3-2.38A2.61,2.61,0,0,1,296.26,63.76Z"/><path class="cls-8" d="M297.4,58.31c-.31.38-2.48-1-5.4-.79s-5,1.82-5.31,1.49c-.17-.15.13-.81,1-1.56a7.47,7.47,0,0,1,4.22-1.63,7.2,7.2,0,0,1,4.33,1.08C297.21,57.52,297.55,58.14,297.4,58.31Z"/><path class="cls-8" d="M270.53,65.28c-.35.35-2.38-1.24-5.31-1.31s-5.12,1.33-5.43,1c-.15-.16.21-.79,1.17-1.45a7.49,7.49,0,0,1,4.36-1.21,7.21,7.21,0,0,1,4.21,1.49C270.41,64.48,270.7,65.13,270.53,65.28Z"/><path class="cls-8" d="M276,80.77c0-.17,1.85-.24,4.83-.23.75,0,1.48,0,1.67-.53a3.81,3.81,0,0,0-.21-2.26q-.69-2.84-1.45-6c-2-8.45-3.32-15.36-3-15.43s2.23,6.71,4.22,15.16l1.35,6a4.32,4.32,0,0,1,0,3,1.85,1.85,0,0,1-1.36.92,4.66,4.66,0,0,1-1.29,0C277.81,81.16,276,80.94,276,80.77Z"/><path class="cls-11" d="M273.46,115.44a54,54,0,0,1-27.22-11.24s5.21,15.42,26.56,16.23Z"/><path class="cls-8" d="M270.93,60.27c-.46.71-3.22-.32-6.67-.7s-6.37-.1-6.65-.91c-.12-.37.52-1,1.79-1.49a11.67,11.67,0,0,1,10.15,1.22C270.67,59.18,271.14,59.93,270.93,60.27Z"/><path class="cls-8" d="M297,54.38c-.48.7-2.54.11-5,.2s-4.45.68-5,0c-.23-.32.06-1,.93-1.68a7.17,7.17,0,0,1,8-.16C296.86,53.38,297.18,54.05,297,54.38Z"/><path class="cls-11" d="M268.91,86.08a6.23,6.23,0,0,1,4.58-1,3.57,3.57,0,0,1,2.13,1.11,4.49,4.49,0,0,1,.75,3.06,6.13,6.13,0,0,1-.29,1.9,2.47,2.47,0,0,1-1.22,1.43,3.4,3.4,0,0,1-1.95.1,7.52,7.52,0,0,1-3.09-1.12,3.82,3.82,0,0,1-1.73-2.7,2.6,2.6,0,0,1,1.55-2.66"/><path class="cls-8" d="M276.8,92.5c-.22.08-.6-.56-1.31-1.43a11.2,11.2,0,0,0-3.2-2.81,11.4,11.4,0,0,0-4.06-1.33c-1.11-.16-1.85-.16-1.9-.39s.66-.59,1.92-.71a8.36,8.36,0,0,1,8.18,4.66C277,91.64,277,92.44,276.8,92.5Z"/><path class="cls-8" d="M226.13,112.73c6.94-1.38,12.3-7.36,14.69-14s2.27-13.95,1.63-21a3.37,3.37,0,0,0-.95-2.48c-1.05-.81-2.56-.15-3.69.54a117,117,0,0,0-12.58,8.84c-3.72,3-7.4,6.45-8.83,11-2.19,7,2.45,15.34,9.54,17.18"/><path class="cls-10" d="M385.88,111.1,353.1,58.42l-9.05-18.54s-2.89-3.83-5.89-7.1c-4.93-5.37-9.79-1.2-9.79-1.2a3.34,3.34,0,0,0-3.29-2,5.62,5.62,0,0,0-4.54,2.31s-1.34-1.49-5.06-1.72a3.87,3.87,0,0,0-2.35.76c-1.22-1.07-3.46-2.61-5.61-1.83-1.68.61-11.87,8.36-14.38,12.26-1.24,1.93,1.07,4.43,4.16,3.26A26.28,26.28,0,0,0,301,43.08a10.17,10.17,0,0,0,2.52-2s-2.57,4.5,0,5.29a5.88,5.88,0,0,0,4.83-1.17c1-.82,2.11-1.89,3.18-2.94l-.13.18c-1.42,2.1,2.28,5.21,4.08,4a27.73,27.73,0,0,0,2.39-1.9c4.16,3-1.62,6.89-4.06,6.69a75.93,75.93,0,0,0-11.28,0c-2.12.17-4,.68-5.16,1.85-1.37,1.42.07,4.4,2,4.7,3.59.56,8.17,1.36,12.93,2.58,5.61,1.44,20.27,6.21,20.27,6.21L334,67.62,354,116.24l-34.13,7.22-7.62,43.24L373.82,150C387.71,142.77,394.28,124.3,385.88,111.1Z"/><path class="cls-11" d="M332.6,66.46a4.66,4.66,0,0,1-.78-.19l-2.21-.63-8.11-2.41-5.58-1.69c-2-.61-4.16-1.26-6.44-1.84a61.37,61.37,0,0,0-7.22-1.49,12.57,12.57,0,0,1-3.91-.7,2.79,2.79,0,0,1-.88-.66,1.29,1.29,0,0,1-.3-.54l-.08-.53a5.28,5.28,0,0,1,.13-2.12A2.92,2.92,0,0,1,298.64,52a10.55,10.55,0,0,1,1.91-.76,12.82,12.82,0,0,1,3.95-.49c2.6,0,5.05.4,7.39.3a23.32,23.32,0,0,0,3.4-.33c1.08-.2,2.13-.48,3.15-.74a16.81,16.81,0,0,1,5.82-.75,16.06,16.06,0,0,1,4.7,1.2,28.82,28.82,0,0,1,3.28,1.61c.87.49,1.53.9,2,1.17a4.6,4.6,0,0,1,.66.46,5.16,5.16,0,0,1-.71-.37l-2-1.08a31.25,31.25,0,0,0-3.29-1.52,15.91,15.91,0,0,0-4.61-1.1,16.75,16.75,0,0,0-5.69.79c-1,.27-2.07.57-3.18.78a22.91,22.91,0,0,1-3.46.36c-2.39.11-4.87-.24-7.41-.27a12.44,12.44,0,0,0-3.79.47c-1.23.4-2.62.84-3,2.07a4.66,4.66,0,0,0-.11,1.9l.06.46a1.31,1.31,0,0,0,.19.34,2.26,2.26,0,0,0,.72.52,12.65,12.65,0,0,0,3.75.67,59,59,0,0,1,7.27,1.53c2.29.59,4.44,1.25,6.44,1.89l5.57,1.75,8.06,2.57,2.18.72A3.71,3.71,0,0,1,332.6,66.46Z"/><path class="cls-11" d="M307.34,29.15c.05.08-1.55,1-3.91,2.8a40.69,40.69,0,0,0-3.92,3.39c-1.4,1.37-2.87,3-4.6,4.45a4.8,4.8,0,0,0-1.85,2.47,1.73,1.73,0,0,0,1.21,2.14,5.14,5.14,0,0,0,2.64.05,12.64,12.64,0,0,0,2.29-.65,16.51,16.51,0,0,0,4.06-2.47,4.25,4.25,0,0,1-.9.94,12.06,12.06,0,0,1-3,1.87,12.73,12.73,0,0,1-2.35.74,5.63,5.63,0,0,1-2.88,0,2.24,2.24,0,0,1-1.55-2.7,5.14,5.14,0,0,1,2-2.76c1.7-1.47,3.18-3,4.61-4.4a34.54,34.54,0,0,1,4-3.35c1.21-.87,2.24-1.49,3-1.91A6.2,6.2,0,0,1,307.34,29.15Z"/><path class="cls-11" d="M319.84,33.29a12.68,12.68,0,0,1-1.16,1.38l-3.29,3.62-4.93,5.32A12,12,0,0,1,307,46.25a5.17,5.17,0,0,1-2.29.57,3.21,3.21,0,0,1-2.31-.92,2.24,2.24,0,0,1-.54-1.25,3.88,3.88,0,0,1,.13-1.28,7.94,7.94,0,0,1,1.06-2.19h0l0,0c1.76-1.87,3.4-3.63,4.88-5.25s2.94-2.89,4.11-4a8,8,0,0,1,1.71-1.38,4.2,4.2,0,0,1,1.62-.35c.88-.06,1.4,0,1.36.11a4.13,4.13,0,0,0-1.34.06,4.58,4.58,0,0,0-1.52.4,8.79,8.79,0,0,0-1.6,1.39c-1.15,1.14-2.56,2.47-4,4.06s-3.08,3.42-4.84,5.31l0,0a7.54,7.54,0,0,0-1,2,3.46,3.46,0,0,0-.11,1.1,1.67,1.67,0,0,0,.41.95,2.68,2.68,0,0,0,1.92.75,4.79,4.79,0,0,0,2.07-.51,11.68,11.68,0,0,0,3.33-2.51c1.87-2,3.57-3.73,5-5.25l3.42-3.5.94-.94A1.63,1.63,0,0,1,319.84,33.29Z"/><path class="cls-11" d="M335.16,38.11s-.05.31-.4.59a2.12,2.12,0,0,1-1.65.41,2.15,2.15,0,0,1-1.42-1c-.24-.38-.24-.66-.18-.68s.2.19.47.45a2.2,2.2,0,0,0,1.22.66,2.35,2.35,0,0,0,1.37-.2C334.91,38.23,335.1,38.06,335.16,38.11Z"/><path class="cls-11" d="M336.36,42.7c-.11.09-.86-.66-1.52-1.78a4.31,4.31,0,0,1-.83-2.2c.13,0,.64.85,1.28,1.93S336.48,42.61,336.36,42.7Z"/><path class="cls-11" d="M338.57,60.58a6.57,6.57,0,0,1-.95-2.08A17.23,17.23,0,0,1,336.8,53a16.9,16.9,0,0,1,1-5.44,6.54,6.54,0,0,1,1-2.06A27,27,0,0,0,337.32,53,27.19,27.19,0,0,0,338.57,60.58Z"/><path class="cls-11" d="M365.49,129.87c-.1,0-.19-1.06-.72-2.69a15.91,15.91,0,0,0-1.18-2.74,18.13,18.13,0,0,0-2.09-3,18.4,18.4,0,0,0-2.7-2.46,17.24,17.24,0,0,0-2.57-1.53c-1.55-.73-2.6-1-2.57-1.06a2.64,2.64,0,0,1,.75.1,10.94,10.94,0,0,1,2,.63,14.41,14.41,0,0,1,2.7,1.47,17,17,0,0,1,2.81,2.51,16.51,16.51,0,0,1,2.12,3.11,14.37,14.37,0,0,1,1.12,2.87,10.26,10.26,0,0,1,.36,2C365.52,129.6,365.53,129.87,365.49,129.87Z"/><path class="cls-10" d="M251.11,226.18a14.18,14.18,0,0,0-8.32,1.06c-4.46-2-9.94,1.43-9.94,1.43-1.61-.77-11.31,5.57-11.31,5.57l-12.09,5.7L144.92,192l18.29-19L137.58,146.3l-30,30.9a22.7,22.7,0,0,0-6,14.55,29.59,29.59,0,0,0,16.44,28l76,39a88.75,88.75,0,0,0,17.29-2.69c6.56-1.71,17.77-6.69,17.77-6.69s0,.34,2,4.23c3.61,7,8.91-.55,8.91-.55a14.36,14.36,0,0,0,2,3.41c4.57,4.43,7.74-1.52,7.74-1.52s1.37,2.39,5.46.61-.59-14.06-.59-14.06,1.36,2.68,4-.71S255.48,227.09,251.11,226.18Z"/><path class="cls-11" d="M242,227.86a2.11,2.11,0,0,1,.84-.32,4.9,4.9,0,0,1,2.45.07,9.35,9.35,0,0,1,3.23,1.65,11.82,11.82,0,0,1,1.61,1.44,8.8,8.8,0,0,1,1.26,2,48.6,48.6,0,0,1,2.95,7.41c.3,1,.51,1.77.63,2.33a3.33,3.33,0,0,1,.14.88,31.25,31.25,0,0,1-1.12-3.1,64.45,64.45,0,0,0-3.07-7.29,8.83,8.83,0,0,0-1.17-1.85,14,14,0,0,0-1.52-1.39,9.91,9.91,0,0,0-3-1.68A6.71,6.71,0,0,0,242,227.86Z"/><path class="cls-11" d="M249.75,255a5,5,0,0,1-.56-1.11l-1.42-3.06c-1.18-2.59-2.93-6.12-4.59-10.16a26.39,26.39,0,0,0-2.63-5.46,9,9,0,0,0-3.71-3.1,6,6,0,0,0-3.2-.57c-.78.1-1.18.31-1.2.26s.09-.07.28-.17a3.41,3.41,0,0,1,.89-.29,5.84,5.84,0,0,1,3.38.43,9.06,9.06,0,0,1,3.95,3.16,25.51,25.51,0,0,1,2.72,5.54c1.66,4,3.35,7.58,4.45,10.21.56,1.31,1,2.39,1.26,3.14A5.77,5.77,0,0,1,249.75,255Z"/><path class="cls-11" d="M220.13,239.55a6.18,6.18,0,0,1,1-.57l2.89-1.39c.62-.28,1.26-.61,2-.93a5.64,5.64,0,0,1,2.59-.38,5.48,5.48,0,0,1,2.71,1,8.57,8.57,0,0,1,2,2.37c.55.89,1,1.82,1.41,2.68s.87,1.69,1.3,2.47c.87,1.56,1.69,2.95,2.3,4.16a25,25,0,0,1,1.28,2.95,4.65,4.65,0,0,1,.32,1.14c-.09,0-.63-1.56-1.93-3.92-.64-1.18-1.49-2.54-2.39-4.09-.45-.78-.9-1.6-1.34-2.48s-.86-1.78-1.39-2.64a8.34,8.34,0,0,0-1.85-2.23,4.9,4.9,0,0,0-2.45-1,5.23,5.23,0,0,0-2.39.3c-.71.29-1.4.61-2,.87l-2.95,1.23A4.28,4.28,0,0,1,220.13,239.55Z"/><path class="cls-11" d="M221.54,234.24a4.36,4.36,0,0,1-.89.56c-.58.33-1.43.79-2.49,1.35-2.11,1.11-5,2.63-8.3,4.27s-6.23,3.1-8.38,4.14c-1.08.52-2,.93-2.57,1.2a3.65,3.65,0,0,1-1,.37,3.86,3.86,0,0,1,.88-.55c.58-.33,1.43-.79,2.49-1.35,2.12-1.12,5.05-2.63,8.31-4.27s6.22-3.11,8.38-4.14c1.07-.52,1.95-.93,2.56-1.2A3.8,3.8,0,0,1,221.54,234.24Z"/><path class="cls-11" d="M145.78,192.1a33.24,33.24,0,0,0-7.62-.25,32.85,32.85,0,0,0-7.35,2,6.92,6.92,0,0,1,2-1.12,19.2,19.2,0,0,1,5.31-1.42,18.85,18.85,0,0,1,5.49.15A6.79,6.79,0,0,1,145.78,192.1Z"/><path class="cls-8" d="M288.3,18.88a201,201,0,0,0-47.53,5c-3.61.83-7.43,1.89-9.87,4.67-2.58,2.94-3,7.14-3.38,11l-1.23,14.25a32,32,0,0,1-2.28,3.4c-3.76,4.91-8.55,9-12,14.15s-5.31,12-2.52,17.52c1.68,3.34,4.8,5.7,7.08,8.66,3.87,5,5.13,11.52,7.4,17.44s6.33,12,12.56,13.16c3,.57,6.06-.06,9.05.38,4.47.65,8.23,3.58,11.79,6.37s7.4,5.63,11.9,6.08,9.65-2.6,9.74-7.12a10.56,10.56,0,0,1-10.87-.3c-2.62-1.72-4.31-4.52-6.56-6.71-5.52-5.36-14.43-7.06-18.27-13.73-3.05-5.27-1.84-11.87-.46-17.8,1.2-5.15,2.41-10.72.93-15.66a19.09,19.09,0,0,0,.18-2.4c0-5.26-2.05-10.9.4-15.55,3.24-6.16,12.58-6.93,15.86-13.07,1.9-3.57,1.23-8.13,3.31-11.6,2-3.26,5.86-4.76,9.58-5.57s7.63-1.18,10.92-3.09S289.78,22.38,288.3,18.88Z"/><path class="cls-8" d="M300.41,126.17s0,.09-.15.25l-.49.69a13.52,13.52,0,0,1-2.3,2.33,15.59,15.59,0,0,1-4.56,2.45,15.84,15.84,0,0,1-6.81.79,14.24,14.24,0,0,1-7.65-3.14c-2.39-1.83-4.51-4.25-7.2-6.19a10.33,10.33,0,0,0-4.58-1.93,10,10,0,0,0-5.1.93,26,26,0,0,1-5.29,1.83,9.37,9.37,0,0,1-5.7-1,29,29,0,0,1-4.8-3.19,38.21,38.21,0,0,1-4.22-3.66,13.18,13.18,0,0,1-3-4.53,9.27,9.27,0,0,1-.35-5.2,29.25,29.25,0,0,1,1.52-4.69c.57-1.47,1.07-2.92,1.52-4.34a61,61,0,0,0,1.85-8,59,59,0,0,0,.64-11.93c-.06-1.41-.15-2.51-.23-3.25,0-.34,0-.62-.07-.84a1.59,1.59,0,0,1,0-.29,1,1,0,0,1,.06.28c0,.22.08.5.13.84.11.74.23,1.83.32,3.25a55.55,55.55,0,0,1-.48,12,58.87,58.87,0,0,1-1.8,8.11c-.44,1.43-.93,2.89-1.51,4.38a27.94,27.94,0,0,0-1.46,4.62,8.76,8.76,0,0,0,.33,4.93,12.87,12.87,0,0,0,2.9,4.34,37.65,37.65,0,0,0,4.18,3.61,27.53,27.53,0,0,0,4.71,3.13,8.76,8.76,0,0,0,5.39,1,25.71,25.71,0,0,0,5.19-1.79,10.51,10.51,0,0,1,5.34-.94,10.76,10.76,0,0,1,4.8,2c2.75,2,4.85,4.43,7.18,6.24a13.88,13.88,0,0,0,7.43,3.11,15.68,15.68,0,0,0,6.68-.7,15.91,15.91,0,0,0,4.53-2.33A17.68,17.68,0,0,0,300.41,126.17Z"/><path class="cls-9" d="M200.51,94.37a9.43,9.43,0,0,1-.81-1.1,11.31,11.31,0,0,1-1.41-3.65,14.72,14.72,0,0,1,.1-6.18A18.64,18.64,0,0,1,201.85,76a34.3,34.3,0,0,1,7.21-6.83c2.87-2.14,6.13-4.12,9.38-6.44a34.42,34.42,0,0,0,8.9-8.65,22,22,0,0,0,2.7-6c.65-2.14,1.09-4.38,1.6-6.64a35.32,35.32,0,0,1,2-6.58,14.83,14.83,0,0,1,3.92-5.43,16.44,16.44,0,0,1,5.68-3.12,26.21,26.21,0,0,1,6.08-1.21,69.25,69.25,0,0,1,11.39.37,52.87,52.87,0,0,0,9.86.12,21,21,0,0,0,7.73-2.3,15.5,15.5,0,0,0,4.74-3.82A11.65,11.65,0,0,0,285,16.18c.28-.84.39-1.3.42-1.29a11.32,11.32,0,0,1-.32,1.33,11.3,11.3,0,0,1-1.86,3.44,15.41,15.41,0,0,1-4.75,3.95A21.22,21.22,0,0,1,270.64,26a53.32,53.32,0,0,1-9.93-.06,70,70,0,0,0-11.32-.32,25.71,25.71,0,0,0-6,1.2,16.12,16.12,0,0,0-5.49,3,14.44,14.44,0,0,0-3.79,5.26,35.44,35.44,0,0,0-2,6.49c-.51,2.25-1,4.5-1.61,6.67a22.8,22.8,0,0,1-2.77,6.1,34.6,34.6,0,0,1-9.05,8.76c-3.28,2.32-6.54,4.29-9.4,6.4a34.45,34.45,0,0,0-7.18,6.7,18.76,18.76,0,0,0-3.47,7.26,14.87,14.87,0,0,0-.18,6.07A12.35,12.35,0,0,0,200.51,94.37Z"/><path class="cls-9" d="M203.43,99.62a22.83,22.83,0,0,1-3.07-3,13.94,13.94,0,0,1-2.67-4.23,7.07,7.07,0,0,1-.46-3.13A6.29,6.29,0,0,1,198.58,86c1.62-2,4.3-3.05,7.11-3.64,1.42-.3,2.89-.53,4.37-.89a12.71,12.71,0,0,0,4.26-1.78,10.3,10.3,0,0,0,3.1-3.67,33.18,33.18,0,0,0,1.91-4.77,34.9,34.9,0,0,1,2-5,10.62,10.62,0,0,1,3.76-4.15,18.66,18.66,0,0,1,5.2-2c1.77-.46,3.52-.83,5.17-1.39a16.75,16.75,0,0,0,7.95-5.85,62.26,62.26,0,0,0,4.92-7.7,43.63,43.63,0,0,1,4.49-6.66A17,17,0,0,1,258,34.31a13,13,0,0,1,4.79-1.45,9.2,9.2,0,0,1,3.15.26,5.56,5.56,0,0,1,1,.37s-.37-.11-1.06-.27a9.6,9.6,0,0,0-3.11-.15,12.87,12.87,0,0,0-4.68,1.5,16.84,16.84,0,0,0-5,4.17,43.56,43.56,0,0,0-4.39,6.63,60.36,60.36,0,0,1-4.93,7.79,20.89,20.89,0,0,1-3.53,3.57,15,15,0,0,1-4.62,2.46c-1.69.58-3.45,1-5.21,1.41a18.6,18.6,0,0,0-5.06,2,10.08,10.08,0,0,0-3.57,4,33.77,33.77,0,0,0-2,4.93,35.36,35.36,0,0,1-2,4.83,10.89,10.89,0,0,1-3.27,3.84A13,13,0,0,1,210.16,82c-1.5.36-3,.58-4.38.87-2.77.56-5.37,1.59-6.91,3.45a5.88,5.88,0,0,0-1.31,3.08,6.69,6.69,0,0,0,.4,3,14.11,14.11,0,0,0,2.55,4.2,28.67,28.67,0,0,0,2.15,2.3l.58.57C203.38,99.54,203.44,99.61,203.43,99.62Z"/><path class="cls-11" d="M326.53,35a3.39,3.39,0,0,1-.51.78c-.36.47-.9,1.15-1.58,2-1.37,1.63-3.33,3.84-5.62,6.14-1.15,1.12-2.22,2.38-3.69,2.84a3.24,3.24,0,0,1-2.11,0,2.7,2.7,0,0,1-1.36-1.25,4.14,4.14,0,0,1-.37-2.54,2.25,2.25,0,0,1,.24-.9,4.91,4.91,0,0,1,0,.92A4.28,4.28,0,0,0,312,45.3a2.29,2.29,0,0,0,1.2,1,2.75,2.75,0,0,0,1.81,0c1.27-.41,2.31-1.61,3.46-2.74,2.28-2.3,4.28-4.46,5.71-6A25.92,25.92,0,0,1,326.53,35Z"/><path class="cls-11" d="M334.17,35a3.65,3.65,0,0,1-.6.78c-.41.47-1,1.16-1.78,2l-2.69,2.91-1.6,1.7a13.13,13.13,0,0,1-1.88,1.74,4.71,4.71,0,0,1-2.44,1,2.51,2.51,0,0,1-2.27-1,1.93,1.93,0,0,1-.37-1.16,2.29,2.29,0,0,1,.34-1.07c.37-.59.75-1.06,1.08-1.52.67-.91,1.22-1.64,1.6-2.14a3.45,3.45,0,0,1,.65-.74,3.58,3.58,0,0,1-.48.86c-.34.53-.84,1.29-1.47,2.23-.3.47-.69,1-1,1.52a1.5,1.5,0,0,0,0,1.74,2,2,0,0,0,1.85.77,4.43,4.43,0,0,0,2.17-.88,14.39,14.39,0,0,0,1.81-1.67l1.62-1.68,2.77-2.83c.79-.81,1.44-1.45,1.9-1.88S334.14,35,334.17,35Z"/></g><g id="Plants"><path class="cls-3" d="M229.35,225.56a16.65,16.65,0,0,1-3,27.68c-3.67-9.4-5.08-19.53,3-27.68"/><path class="cls-3" d="M243.26,232.78a21.55,21.55,0,0,0,31.15,18.11c-7-11-16.47-20.28-31.15-18.11"/><path class="cls-8" d="M211.39,198a2.82,2.82,0,0,1,.47.5L213.1,200c1.07,1.31,2.62,3.19,4.58,5.49,3.9,4.6,9.41,10.86,15.9,17.39,3.25,3.26,6.44,6.27,9.4,8.93s5.76,4.92,8.16,6.75a62.15,62.15,0,0,0,5.89,4c1.45.86,2.31,1.22,2.29,1.27a3.19,3.19,0,0,1-.64-.24,15.27,15.27,0,0,1-1.75-.85,52.2,52.2,0,0,1-6-3.9c-2.44-1.79-5.24-4.06-8.25-6.68s-6.2-5.66-9.46-8.92c-6.5-6.55-12-12.86-15.82-17.52-1.92-2.33-3.43-4.26-4.44-5.61l-1.18-1.55A4.33,4.33,0,0,1,211.39,198Z"/><path class="cls-8" d="M228.57,239.78c-.08,0,.25-1.4.54-3.68a40.3,40.3,0,0,0,.09-8.91,39.56,39.56,0,0,0-1.93-8.7c-.75-2.17-1.36-3.45-1.28-3.49a3.73,3.73,0,0,1,.51.86,23.92,23.92,0,0,1,1.11,2.5,34.35,34.35,0,0,1,1.86,17.8,24.68,24.68,0,0,1-.57,2.67A3.51,3.51,0,0,1,228.57,239.78Z"/><path class="cls-3" d="M161.3,100.38a18.28,18.28,0,0,1,26,16.05c-11.05-.82-21.75-4.21-26-16.05"/><g class="cls-12"><path d="M161.3,100.38a18.28,18.28,0,0,1,26,16.05c-11.05-.82-21.75-4.21-26-16.05"/></g><path class="cls-8" d="M155.81,99.09a2.71,2.71,0,0,1,.88,0,23.1,23.1,0,0,1,2.37.38,37.63,37.63,0,0,1,7.54,2.41,38.24,38.24,0,0,1,6.88,3.93c.82.6,1.46,1.11,1.88,1.49s.65.59.63.62-1-.7-2.72-1.8A45.84,45.84,0,0,0,159,99.87C157,99.38,155.8,99.17,155.81,99.09Z"/><path class="cls-3" d="M5.15,95A16.64,16.64,0,0,1,15.31,83.23a16.63,16.63,0,0,1,15.4,2C24.1,92.67,15.87,98.41,5.15,95"/><path class="cls-8" d="M1.24,98.16A12.4,12.4,0,0,1,3.3,96.07a33.52,33.52,0,0,1,5.82-4,33.16,33.16,0,0,1,6.55-2.72,11.37,11.37,0,0,1,2.87-.61,27,27,0,0,1-2.76,1,41.18,41.18,0,0,0-12.24,6.7A26.1,26.1,0,0,1,1.24,98.16Z"/></g></g></svg>