<svg xmlns="http://www.w3.org/2000/svg" viewBox="0 0 344.29 46.36"><defs><style>.cls-1{fill:#fff;}</style></defs><g id="Livello_2" data-name="Livello 2"><g id="Livello_1-2" data-name="Livello 1"><path class="cls-1" d="M23.19,42.17,16.17,32H8.42V42.17H0V5.77H15.76c9.72,0,15.8,5,15.8,13.2a11.84,11.84,0,0,1-7.48,11.5l8.16,11.7Zm-7.9-29.54H8.42V25.32h6.87C20.44,25.32,23,22.93,23,19S20.44,12.63,15.29,12.63Z"/><path class="cls-1" d="M35.93,24c0-10.82,8.43-18.83,19.92-18.83S75.76,13.1,75.76,24,67.29,42.79,55.85,42.79,35.93,34.78,35.93,24Zm31.31,0c0-6.92-4.89-11.65-11.39-11.65S44.46,17.05,44.46,24s4.89,11.65,11.39,11.65S67.24,30.88,67.24,24Z"/><path class="cls-1" d="M79.82,24c0-10.82,8.42-18.83,19.92-18.83s19.91,8,19.91,18.83-8.47,18.82-19.91,18.82S79.82,34.78,79.82,24Zm31.3,0c0-6.92-4.88-11.65-11.38-11.65S88.35,17.05,88.35,24s4.89,11.65,11.39,11.65S111.12,30.88,111.12,24Z"/><path class="cls-1" d="M159.12,42.17l-.05-21.84-10.71,18h-3.8L133.9,20.79V42.17H126V5.77h7l13.63,22.62L160,5.77h6.92l.1,36.4Z"/><path class="cls-1" d="M248.71,12.63H237.06V5.77h31.72v6.86H257.13V42.17h-8.42Z"/><path class="cls-1" d="M270.5,24c0-11,8.42-18.83,19.76-18.83,6.29,0,11.54,2.29,15,6.45l-5.41,5a11.71,11.71,0,0,0-9.16-4.26C283.86,12.32,279,17.1,279,24s4.83,11.65,11.64,11.65a11.61,11.61,0,0,0,9.16-4.32l5.41,5c-3.44,4.21-8.69,6.5-15,6.5C278.92,42.79,270.5,34.94,270.5,24Z"/><path class="cls-1" d="M344.29,5.77v36.4h-8.43V27.24H319.33V42.17H310.9V5.77h8.43V20.12h16.53V5.77Z"/><path class="cls-1" d="M218.81,46.36a7.33,7.33,0,0,1-2.35-.39l-12.07-4.11a1.77,1.77,0,0,1-.31-.15l0,0,0,0a1.77,1.77,0,0,1-.31.15L191.63,46a7.22,7.22,0,0,1-9.55-6.83V23.63a4.26,4.26,0,0,1-1.34-7.2l.09-.08L199.4,1.71a7.15,7.15,0,0,1,9.27,0l18,12.56.11.09a4.56,4.56,0,0,1,1.58,4.19A5.2,5.2,0,0,1,226,22.15v17a7.23,7.23,0,0,1-7.19,7.22Zm-11.57-6.7,10.18,3.47a4.21,4.21,0,0,0,5.58-4V21.24a1.5,1.5,0,0,1,.87-1.36l.29-.13a2.17,2.17,0,0,0,1.23-1.63,1.62,1.62,0,0,0-.5-1.44l-18-12.56L206.78,4a4.19,4.19,0,0,0-5.48,0L182.69,18.71a1.22,1.22,0,0,0-.36,1.27,1.26,1.26,0,0,0,1,.89,1.23,1.23,0,0,1,.33.08l.44.17a1.51,1.51,0,0,1,1,1.4V39.14a4.22,4.22,0,0,0,5.58,4l10.18-3.47a39.11,39.11,0,0,1-3.05-2.57,29.2,29.2,0,0,1-5.65-6.8,10.62,10.62,0,0,1-1.27-7.79,7.34,7.34,0,0,1,5.81-5.67c2.6-.32,5.33,1.38,7.36,3.41,2-2,4.76-3.73,7.36-3.41a7.34,7.34,0,0,1,5.81,5.67,10.62,10.62,0,0,1-1.27,7.79,29,29,0,0,1-5.65,6.8A39.11,39.11,0,0,1,207.24,39.66Zm-1.07-1.08h0Zm-3.42-1.24,1.29.81,1.29-.81a33.43,33.43,0,0,0,2.9-2.44,26.08,26.08,0,0,0,5.08-6,7.64,7.64,0,0,0,1-5.63A4.36,4.36,0,0,0,211,19.81c-1.72-.22-4.22,1.65-5.82,3.61A1.48,1.48,0,0,1,204,24h0a1.48,1.48,0,0,1-1.16-.55c-1.6-2-4.1-3.83-5.82-3.61a4.36,4.36,0,0,0-3.28,3.41,7.6,7.6,0,0,0,1,5.63,25.81,25.81,0,0,0,5.07,6A33.43,33.43,0,0,0,202.75,37.34Z"/></g></g></svg>