<svg xmlns="http://www.w3.org/2000/svg" viewBox="0 0 337.13 43.35"><defs><style>.cls-1{fill:#fff;}</style></defs><g id="Livello_2" data-name="Livello 2"><g id="Livello_1-2" data-name="Livello 1"><path class="cls-1" d="M23.19,40.91l-7-10.14H8.42V40.91H0V4.51H15.76c9.72,0,15.8,5,15.8,13.21a11.83,11.83,0,0,1-7.48,11.49l8.16,11.7Zm-7.9-29.54H8.42V24.06h6.87c5.15,0,7.75-2.39,7.75-6.34S20.44,11.37,15.29,11.37Z"/><path class="cls-1" d="M35.93,22.71c0-10.82,8.43-18.83,19.92-18.83s19.91,8,19.91,18.83S67.29,41.53,55.85,41.53,35.93,33.52,35.93,22.71Zm31.31,0c0-6.92-4.89-11.65-11.39-11.65S44.46,15.79,44.46,22.71s4.89,11.65,11.39,11.65S67.24,29.62,67.24,22.71Z"/><path class="cls-1" d="M79.82,22.71c0-10.82,8.42-18.83,19.92-18.83s19.91,8,19.91,18.83-8.47,18.82-19.91,18.82S79.82,33.52,79.82,22.71Zm31.3,0c0-6.92-4.88-11.65-11.38-11.65S88.35,15.79,88.35,22.71s4.89,11.65,11.39,11.65S111.12,29.62,111.12,22.71Z"/><path class="cls-1" d="M159.12,40.91l-.05-21.84-10.71,18h-3.8L133.9,19.54V40.91H126V4.51h7l13.63,22.62L160,4.51h6.92l.1,36.4Z"/><path class="cls-1" d="M241.55,11.37H229.9V4.51h31.72v6.86H250V40.91h-8.42Z"/><path class="cls-1" d="M263.34,22.71c0-11,8.42-18.83,19.76-18.83,6.29,0,11.54,2.29,15,6.45l-5.41,5a11.71,11.71,0,0,0-9.16-4.26c-6.81,0-11.64,4.78-11.64,11.65s4.83,11.65,11.64,11.65A11.61,11.61,0,0,0,292.67,30l5.41,5c-3.44,4.21-8.69,6.5-15,6.5C271.76,41.53,263.34,33.68,263.34,22.71Z"/><path class="cls-1" d="M337.13,4.51v36.4H328.7V26H312.17V40.91h-8.43V4.51h8.43V18.86H328.7V4.51Z"/><path class="cls-1" d="M213.69,43.35a7,7,0,0,1-2.25-.37l-11.16-3.81a1.12,1.12,0,0,1-.25-.11,1.19,1.19,0,0,1-.26.11L188.62,43a6.91,6.91,0,0,1-9.14-6.54V22.25a4.16,4.16,0,0,1-1.16-7l.09-.08L195.59,1.63a6.85,6.85,0,0,1,8.86,0l16.64,11.62.12.09a4.46,4.46,0,0,1,1.54,4.09,5,5,0,0,1-2.18,3.43V36.44a6.91,6.91,0,0,1-6.88,6.91Zm-10.22-6.51,9,3.07a3.67,3.67,0,0,0,4.85-3.47V19.88a1.63,1.63,0,0,1,.94-1.47l.27-.12a1.75,1.75,0,0,0,1-1.33,1.21,1.21,0,0,0-.37-1.12L202.53,4.23l-.12-.1a3.66,3.66,0,0,0-4.77,0L180.42,17.72a.87.87,0,0,0-.25.93.9.9,0,0,0,.76.66,1.58,1.58,0,0,1,.36.09l.4.16a1.62,1.62,0,0,1,1,1.51V36.44a3.67,3.67,0,0,0,4.85,3.47l9-3.07c-.86-.67-1.7-1.38-2.49-2.13a26.87,26.87,0,0,1-5.27-6.35A10,10,0,0,1,187.61,21a7,7,0,0,1,5.58-5.41c2.42-.31,4.93,1.2,6.84,3,1.9-1.85,4.41-3.36,6.83-3A7,7,0,0,1,212.44,21a10,10,0,0,1-1.21,7.37A26.64,26.64,0,0,1,206,34.71C205.17,35.46,204.33,36.17,203.47,36.84ZM202,35.92h0Zm-3-1.34,1.06.67,1.06-.67a29.35,29.35,0,0,0,2.66-2.23,23.86,23.86,0,0,0,4.64-5.54,6.81,6.81,0,0,0,.9-5,3.79,3.79,0,0,0-2.84-3c-1.49-.19-3.73,1.49-5.17,3.26a1.64,1.64,0,0,1-1.25.59h0a1.65,1.65,0,0,1-1.26-.59c-1.44-1.77-3.68-3.46-5.17-3.26a3.81,3.81,0,0,0-2.84,3,6.81,6.81,0,0,0,.9,5,23.86,23.86,0,0,0,4.64,5.54A28.16,28.16,0,0,0,199,34.58Z"/></g></g></svg>