<svg xmlns="http://www.w3.org/2000/svg" viewBox="0 0 343.13 46"><defs><style>.cls-1{fill:#fff;}</style></defs><g id="Livello_2" data-name="Livello 2"><g id="Livello_1-2" data-name="Livello 1"><path class="cls-1" d="M23.19,42.94l-7-10.14H8.42V42.94H0V6.54H15.76c9.72,0,15.8,5.05,15.8,13.21a11.82,11.82,0,0,1-7.48,11.49l8.16,11.7Zm-7.9-29.53H8.42V26.1h6.87c5.15,0,7.75-2.4,7.75-6.35S20.44,13.41,15.29,13.41Z"/><path class="cls-1" d="M35.93,24.74c0-10.81,8.43-18.82,19.92-18.82s19.91,8,19.91,18.82S67.29,43.57,55.85,43.57,35.93,35.56,35.93,24.74Zm31.31,0c0-6.91-4.89-11.64-11.39-11.64S44.46,17.83,44.46,24.74s4.89,11.65,11.39,11.65S67.24,31.66,67.24,24.74Z"/><path class="cls-1" d="M79.82,24.74c0-10.81,8.42-18.82,19.92-18.82s19.91,8,19.91,18.82-8.47,18.83-19.91,18.83S79.82,35.56,79.82,24.74Zm31.3,0c0-6.91-4.88-11.64-11.38-11.64S88.35,17.83,88.35,24.74s4.89,11.65,11.39,11.65S111.12,31.66,111.12,24.74Z"/><path class="cls-1" d="M159.12,42.94l-.05-21.84-10.71,18h-3.8L133.9,21.57V42.94H126V6.54h7l13.63,22.62L160,6.54h6.92l.1,36.4Z"/><path class="cls-1" d="M247.55,13.41H235.9V6.54h31.72v6.87H256V42.94h-8.42Z"/><path class="cls-1" d="M269.34,24.74c0-11,8.42-18.82,19.76-18.82,6.29,0,11.54,2.29,15,6.45l-5.41,5a11.71,11.71,0,0,0-9.16-4.26c-6.81,0-11.64,4.78-11.64,11.64s4.83,11.65,11.64,11.65a11.6,11.6,0,0,0,9.16-4.31l5.41,5c-3.44,4.21-8.69,6.5-15,6.5C277.76,43.57,269.34,35.72,269.34,24.74Z"/><path class="cls-1" d="M343.13,6.54v36.4H334.7V28H318.17V42.94h-8.43V6.54h8.43V20.9H334.7V6.54Z"/><path class="cls-1" d="M224.86,14.31l0,0-.11-.09L206.78,1.67a7.05,7.05,0,0,0-9.13,0l-18.5,14.6-.08.06a4.16,4.16,0,0,0,1.37,7.05v15.5a7.11,7.11,0,0,0,9.4,6.72l12-4.09a1.55,1.55,0,0,0,.29-.14l.07,0L200.1,40A36,36,0,0,1,197,37.45a27.29,27.29,0,0,1-5.34-6.4,9.09,9.09,0,0,1-1.13-6.68,5.82,5.82,0,0,1,4.53-4.52c2.52-.32,5.47,2.09,7.13,4.13,1.67-2,4.61-4.45,7.14-4.13a5.82,5.82,0,0,1,4.53,4.52,9.19,9.19,0,0,1-1.13,6.68,27.54,27.54,0,0,1-5.34,6.4A37.62,37.62,0,0,1,204.35,40l-2.11,1.32.07,0a1.55,1.55,0,0,0,.29.14l12,4.09a7.14,7.14,0,0,0,2.31.39A7.13,7.13,0,0,0,224,38.89v-17a5.06,5.06,0,0,0,2.35-3.56A4.44,4.44,0,0,0,224.86,14.31Z"/></g></g></svg>