<?xml version="1.0" encoding="utf-8"?>
<!-- Generator: Adobe Illustrator 23.0.1, SVG Export Plug-In . SVG Version: 6.00 Build 0)  -->
<svg version="1.1" id="Layer_1" xmlns="http://www.w3.org/2000/svg" xmlns:xlink="http://www.w3.org/1999/xlink" x="0px" y="0px"
	 viewBox="0 0 33 31" style="enable-background:new 0 0 33 31;" xml:space="preserve">
<style type="text/css">
	.st0{fill:#FFFFFF;}
</style>
<g id="Livello_2">
	<g id="Graphic_Elements">
		<path class="st0" d="M31.5,14l-0.2,0.1v12.8c0,2.3-1.8,4.1-4.1,4.1c-0.4,0-0.9-0.1-1.3-0.2l-8.6-2.9l-0.6-0.4l1.5-1
			c0.8-0.6,1.5-1.2,2.2-1.9c1.5-1.3,2.8-2.9,3.8-4.6c0.9-1.4,1.2-3.2,0.8-4.8c-0.3-1.6-1.6-2.9-3.2-3.3c-1.8-0.2-3.9,1.5-5.1,3
			c-1.2-1.5-3.3-3.2-5.1-3c-1.6,0.3-2.9,1.6-3.2,3.2c-0.4,1.6-0.1,3.4,0.8,4.8c1,1.7,2.3,3.3,3.8,4.6c0.7,0.7,1.4,1.3,2.2,1.9l1.5,1
			L16,27.8l-8.6,3c-2.1,0.7-4.5-0.4-5.2-2.6C2.1,27.8,2,27.4,2,26.9V15l-0.3-0.1c-1.1-0.2-1.8-1.2-1.6-2.3c0.1-0.4,0.3-0.8,0.6-1.1
			l0,0L14,1c1.5-1.3,3.8-1.3,5.3,0l12.9,9l0,0c1,0.9,1,2.5,0.1,3.5C32.1,13.7,31.8,13.9,31.5,14z"/>
	</g>
</g>
</svg>
