<?xml version="1.0" encoding="utf-8"?>
<!-- Generator: Adobe Illustrator 23.0.1, SVG Export Plug-In . SVG Version: 6.00 Build 0)  -->
<svg version="1.1" id="Layer_1" xmlns="http://www.w3.org/2000/svg" xmlns:xlink="http://www.w3.org/1999/xlink" x="0px" y="0px"
	 viewBox="0 0 33 31.1" style="enable-background:new 0 0 33 31.1;" xml:space="preserve">
<style type="text/css">
	.st0{fill:#FFFFFF;}
</style>
<g id="Livello_2">
	<g id="Graphic_Elements">
		<path class="st0" d="M26.6,31.1c-0.5,0-1-0.1-1.5-0.3l-8.2-2.8c-0.1,0-0.1,0-0.2-0.1l-0.1-0.1L16.5,28l-0.2,0.1l-8.2,2.8
			c-2.5,0.8-5.2-0.5-6-2.9c-0.2-0.5-0.3-1-0.3-1.5V15.7c-0.9-0.3-1.5-0.9-1.8-1.8c-0.3-1,0-2.1,0.8-2.8l0,0H1l12.6-10
			c1.8-1.5,4.3-1.5,6.1,0l12.2,8.5H32l0,0c0.8,0.7,1.1,1.7,1,2.7c-0.2,1-0.7,1.9-1.6,2.4v11.7C31.3,29,29.2,31.1,26.6,31.1
			L26.6,31.1z M18.4,26.8l7.2,2.5c1.6,0.6,3.3-0.3,3.8-1.8c0.1-0.3,0.2-0.7,0.2-1V14.2c0-0.3,0.2-0.6,0.5-0.8l0.2-0.1
			c0.5-0.2,0.8-0.7,0.9-1.2c0.1-0.4-0.1-0.8-0.4-1.1L18.7,2.5l-0.1,0c-1.1-1-2.8-1-3.9,0l0,0L2,12.4c-0.4,0.4-0.5,1-0.1,1.4
			c0.2,0.2,0.4,0.3,0.7,0.4h0.2l0.3,0.1c0.3,0.1,0.5,0.4,0.5,0.8v11.3c0,1.7,1.3,3,3,3c0.4,0,0.7-0.1,1-0.2l7.2-2.5l-0.1-0.1h-0.1
			c-0.8-0.6-1.5-1.2-2.2-1.8c-1.5-1.3-2.8-2.9-3.8-4.6c-0.9-1.5-1.2-3.4-0.8-5.2c0.4-1.9,1.9-3.4,3.8-3.7c2-0.3,4,1.4,5,2.4
			c1-1,3-2.6,5-2.4c1.9,0.4,3.4,1.8,3.8,3.7c0.4,1.8,0.1,3.6-0.9,5.2c-1,1.7-2.3,3.2-3.8,4.6c-0.7,0.6-1.4,1.3-2.2,1.8h-0.1
			L18.4,26.8z M15.7,25.3l1,0.6l1-0.6c0.7-0.5,1.4-1.1,2-1.7c1.4-1.2,2.5-2.6,3.5-4.1c0.7-1.2,1-2.6,0.7-3.9
			c-0.2-1.2-1.2-2.2-2.4-2.4c-1.3-0.2-3,1.2-4.1,2.5c-0.3,0.4-0.9,0.4-1.2,0.1c0,0-0.1-0.1-0.1-0.1c-1.1-1.3-2.8-2.7-4.1-2.5
			c-1.2,0.3-2.1,1.2-2.4,2.4c-0.3,1.3,0,2.8,0.7,3.9c0.9,1.6,2.1,3,3.5,4.1C14.4,24.2,15,24.8,15.7,25.3L15.7,25.3z"/>
	</g>
</g>
</svg>
