<svg xmlns="http://www.w3.org/2000/svg" viewBox="0 0 33 31.01"><defs><style>.cls-1{fill:#517f9c;}</style></defs><g id="Livello_2" data-name="Livello 2"><g id="Graphic_Elements" data-name="Graphic Elements"><path class="cls-1" d="M31.48,14l-.2.09V26.92a4.09,4.09,0,0,1-5.41,3.87l-8.63-2.94-.6-.38,1.53-.95a25.77,25.77,0,0,0,2.21-1.85,19.86,19.86,0,0,0,3.83-4.6,6.56,6.56,0,0,0,.81-4.8A4.19,4.19,0,0,0,21.77,12c-1.82-.23-3.93,1.51-5.13,3-1.2-1.46-3.31-3.2-5.13-3a4.19,4.19,0,0,0-3.25,3.25,6.56,6.56,0,0,0,.81,4.8,19.65,19.65,0,0,0,3.84,4.6,24.32,24.32,0,0,0,2.21,1.85l1.52.95-.6.38L7.41,30.79A4.09,4.09,0,0,1,2,26.92V15l-.31-.12a2,2,0,0,1-1-3.43l0,0L14,1A4.09,4.09,0,0,1,19.3,1l12.92,9,0,0A2.44,2.44,0,0,1,31.48,14Z"/></g></g></svg>