<svg xmlns="http://www.w3.org/2000/svg" viewBox="0 0 33 31.12"><defs><style>.cls-1{fill:#517f9c;}</style></defs><g id="Livello_2" data-name="Livello 2"><g id="Graphic_Elements" data-name="Graphic Elements"><path class="cls-1" d="M26.65,31.12a4.61,4.61,0,0,1-1.54-.26l-8.18-2.79a.75.75,0,0,1-.18-.08l-.12-.07-.11.07-.18.08L8.16,30.86A4.73,4.73,0,0,1,1.9,26.39V15.74A2.65,2.65,0,0,1,.12,13.92,2.68,2.68,0,0,1,.93,11.1l0,0H1L13.57,1.13a4.71,4.71,0,0,1,6.1,0L31.89,9.64l.07,0,0,0a2.94,2.94,0,0,1,1,2.67,3.36,3.36,0,0,1-1.6,2.38V26.39a4.75,4.75,0,0,1-4.72,4.73Zm-8.21-4.33,7.22,2.46a3,3,0,0,0,4-2.86V14.24a.84.84,0,0,1,.5-.77l.19-.09a1.63,1.63,0,0,0,.93-1.23,1.23,1.23,0,0,0-.4-1.13L18.67,2.49l-.07-.05a3,3,0,0,0-3.93,0l0,0L2.05,12.39a1,1,0,0,0,.53,1.76l.19,0,.3.12a.85.85,0,0,1,.54.79V26.39a3,3,0,0,0,4,2.86l7.22-2.46-.1-.06-.05,0a24.89,24.89,0,0,1-2.17-1.82,19.25,19.25,0,0,1-3.8-4.57,7,7,0,0,1-.85-5.16,4.8,4.8,0,0,1,3.8-3.72c2-.26,4,1.35,5,2.38,1-1,2.95-2.64,5-2.38a4.81,4.81,0,0,1,3.8,3.72,7,7,0,0,1-.85,5.16,19.49,19.49,0,0,1-3.8,4.57,24.89,24.89,0,0,1-2.17,1.82l-.06,0ZM18.08,26Zm-2.41-.71,1,.6,1-.6a20.94,20.94,0,0,0,2-1.67,17.71,17.71,0,0,0,3.47-4.15,5.31,5.31,0,0,0,.7-3.93,3.15,3.15,0,0,0-2.37-2.44c-1.27-.16-3,1.19-4.09,2.51a.87.87,0,0,1-1.33,0c-1.08-1.32-2.82-2.67-4.09-2.51a3.13,3.13,0,0,0-2.37,2.44,5.35,5.35,0,0,0,.69,3.93,17.74,17.74,0,0,0,3.48,4.15A20.94,20.94,0,0,0,15.67,25.3Z"/></g></g></svg>