<svg xmlns="http://www.w3.org/2000/svg" viewBox="0 0 677.42 414.66"><defs><style>.cls-1{fill:#ebebeb;}.cls-2{fill:#e0e0e0;}.cls-3{fill:#810064;}.cls-4{fill:#fff;opacity:0.8;}.cls-5{fill:#263238;}.cls-6{opacity:0.3;}</style></defs><g id="Livello_2" data-name="Livello 2"><g id="Background_Complete" data-name="Background Complete"><path class="cls-1" d="M433.62,390.22A16.66,16.66,0,0,1,458.34,403c-10.1,0-20-2.34-24.72-12.82"/><path class="cls-1" d="M445.39,379.88a21.56,21.56,0,0,0,28.18-22.46c-12.83,2.51-24.87,8-28.18,22.46"/><path class="cls-2" d="M401.42,397a3.28,3.28,0,0,1,.64-.26l1.84-.62c1.6-.52,3.92-1.28,6.77-2.27,5.71-2,13.54-4.83,22-8.51,4.21-1.85,8.17-3.73,11.73-5.53s6.68-3.58,9.25-5.15a62.61,62.61,0,0,0,5.87-4c1.32-1,2-1.72,2-1.68a3.32,3.32,0,0,1-.46.51,16.18,16.18,0,0,1-1.43,1.32,53.27,53.27,0,0,1-5.81,4.19c-2.55,1.62-5.68,3.41-9.22,5.27s-7.52,3.72-11.75,5.58c-8.45,3.68-16.32,6.5-22.06,8.38-2.87.95-5.21,1.65-6.83,2.12l-1.87.52A4.23,4.23,0,0,1,401.42,397Z"/><path class="cls-2" d="M446.59,396.11c0,.07-1.22-.74-3.23-1.83a38.71,38.71,0,0,0-17.09-4.68c-2.28-.09-3.71,0-3.71-.08a4,4,0,0,1,1-.16,23.46,23.46,0,0,1,2.73-.13A34.34,34.34,0,0,1,443.54,394a25.18,25.18,0,0,1,2.28,1.5A3.58,3.58,0,0,1,446.59,396.11Z"/><path class="cls-1" d="M208.36,351.14a21,21,0,0,0,20.7,28.36c-1.91-12.59-6.76-24.54-20.7-28.36"/><path class="cls-2" d="M206.39,345c.08,0,.42,1.38,1.15,3.57a52.69,52.69,0,0,0,3.55,8.28,54.18,54.18,0,0,0,4.93,7.55c1.43,1.82,2.4,2.87,2.34,2.93s-.3-.21-.76-.67-1.11-1.15-1.86-2a43.74,43.74,0,0,1-8.55-15.95c-.32-1.12-.55-2-.66-2.67A3.3,3.3,0,0,1,206.39,345Z"/><path class="cls-1" d="M8.52,98.81a32.53,32.53,0,0,0,32.07,43.93c-3-19.51-10.47-38-32.07-43.93"/><path class="cls-2" d="M5.46,89.24a8.3,8.3,0,0,1,.47,1.49c.26,1,.67,2.36,1.22,4.07a80.62,80.62,0,0,0,5.47,12.86,79.8,79.8,0,0,0,7.69,11.68c1.12,1.41,2.05,2.52,2.71,3.27a9.38,9.38,0,0,1,1,1.22,9.13,9.13,0,0,1-1.14-1.08c-.71-.71-1.69-1.79-2.84-3.18a70,70,0,0,1-7.87-11.66,70.83,70.83,0,0,1-5.36-13c-.51-1.73-.87-3.14-1.07-4.13A10.93,10.93,0,0,1,5.46,89.24Z"/><path class="cls-1" d="M227.89,45A21,21,0,0,0,258.22,27.3c-12.72.62-25.1,4.21-30.33,17.69"/><path class="cls-2" d="M221.54,46.32c0-.09,1.42-.29,3.67-.79a52.19,52.19,0,0,0,8.6-2.68,53.41,53.41,0,0,0,8-4.13c2-1.23,3.11-2.09,3.16-2s-.24.27-.74.68S243,38.37,242,39a43.32,43.32,0,0,1-8,4.3,44.17,44.17,0,0,1-8.72,2.57c-1.15.2-2.08.33-2.73.38A4.18,4.18,0,0,1,221.54,46.32Z"/><path class="cls-1" d="M202,43.17A28.21,28.21,0,0,0,222,26.1,28.21,28.21,0,0,0,218.69,0C206.09,11.09,196.27,25,202,43.17"/><path class="cls-2" d="M196.52,49.76a6.12,6.12,0,0,1,.84-1c.57-.63,1.38-1.57,2.34-2.75a68.37,68.37,0,0,0,6.69-9.83,68.81,68.81,0,0,0,4.84-10.87c.5-1.44.87-2.62,1.11-3.44a6.57,6.57,0,0,1,.43-1.26,5.84,5.84,0,0,1-.24,1.31c-.17.84-.5,2-.95,3.51a59.55,59.55,0,0,1-4.73,11A59.65,59.65,0,0,1,200,46.21c-1,1.15-1.86,2.06-2.48,2.65A7.45,7.45,0,0,1,196.52,49.76Z"/><path class="cls-1" d="M376.7,26.7A12.65,12.65,0,0,0,397.77,25C390.7,22,383,20.73,376.7,26.7"/><path class="cls-2" d="M372.91,25.77a58.06,58.06,0,0,0,7.57,1.2,61.32,61.32,0,0,0,7.66-.34,7.84,7.84,0,0,1-2.2.57,25,25,0,0,1-5.49.29,24.47,24.47,0,0,1-5.42-.91A7.53,7.53,0,0,1,372.91,25.77Z"/><path class="cls-1" d="M616.94,57.46A21,21,0,0,0,643.31,34.3c-12.36,3-23.82,8.93-26.37,23.16"/><path class="cls-2" d="M611,60c0-.08,1.33-.54,3.45-1.46a54.27,54.27,0,0,0,7.93-4.28,53.62,53.62,0,0,0,7.06-5.59c1.69-1.58,2.65-2.64,2.72-2.59a3.47,3.47,0,0,1-.6.82c-.41.51-1,1.2-1.86,2a43.8,43.8,0,0,1-15.11,10,27.21,27.21,0,0,1-2.6.89A3.17,3.17,0,0,1,611,60Z"/><path class="cls-1" d="M640.6,362.24A36.54,36.54,0,0,0,661.78,305c-16.4,14.89-29.06,33.4-21.18,57.28"/><path class="cls-2" d="M633.54,371a12.93,12.93,0,0,1,1.12-1.35c.75-.85,1.8-2.09,3.05-3.67s2.69-3.5,4.18-5.7,3-4.7,4.47-7.4,2.67-5.37,3.7-7.82,1.84-4.72,2.45-6.64,1.07-3.48,1.36-4.57a10.38,10.38,0,0,1,.52-1.67,12.17,12.17,0,0,1-.32,1.72c-.23,1.11-.64,2.7-1.21,4.63s-1.36,4.22-2.35,6.71a85,85,0,0,1-3.69,7.88,86.65,86.65,0,0,1-4.53,7.43c-1.53,2.2-3,4.12-4.29,5.66s-2.4,2.77-3.19,3.57A10,10,0,0,1,633.54,371Z"/></g><g id="Capa_8" data-name="Capa 8"><circle class="cls-3" cx="522.85" cy="359.52" r="17.25" transform="translate(91.97 825.32) rotate(-81.74)"/><circle class="cls-4" cx="522.85" cy="359.52" r="17.25" transform="translate(91.97 825.32) rotate(-81.74)"/><path class="cls-3" d="M42.31,319.85A21,21,0,0,0,45.7,354.8c4.75-11.82,6.67-24.57-3.39-34.95"/><path class="cls-3" d="M43.75,313.53c.08,0-.33,1.4-.82,3.66a51.62,51.62,0,0,0-.75,17.93c.3,2.3.6,3.7.51,3.72a4.11,4.11,0,0,1-.31-1c-.17-.63-.37-1.55-.57-2.7a44,44,0,0,1,.76-18.08c.29-1.12.57-2,.79-2.64A4.06,4.06,0,0,1,43.75,313.53Z"/><path class="cls-3" d="M284,407.74a12.65,12.65,0,0,0,21,2.36c-6.36-4.28-13.63-7-21-2.36"/><path class="cls-3" d="M280.46,406.09a56.56,56.56,0,0,0,7.2,2.64,59.4,59.4,0,0,0,7.58,1.15A7.61,7.61,0,0,1,293,410a25,25,0,0,1-10.58-2.71A7.3,7.3,0,0,1,280.46,406.09Z"/></g><g id="Plants"><path class="cls-3" d="M585.54,380.36a12.67,12.67,0,0,1,20.59-3.56,16.49,16.49,0,0,1-9.21,7.07,10,10,0,0,1-11.38-3.51"/><path class="cls-5" d="M578.44,382a12.58,12.58,0,0,1,2.87-.89c1.81-.44,4.33-.94,7.12-1.4s5.33-.8,7.18-1a16,16,0,0,1,3-.23,19.31,19.31,0,0,1-3,.59l-7.15,1.18c-2.78.46-5.3.89-7.12,1.24A24.8,24.8,0,0,1,578.44,382Z"/><path class="cls-3" d="M228.11,317.06a16.65,16.65,0,0,1-3,27.68c-3.67-9.41-5.08-19.54,3-27.68"/><path class="cls-3" d="M242,324.27a21.56,21.56,0,0,0,31.15,18.12c-7-11-16.47-20.28-31.15-18.12"/><path class="cls-5" d="M210.15,289.49a3.38,3.38,0,0,1,.47.5l1.25,1.49c1.06,1.31,2.61,3.2,4.57,5.5,3.9,4.6,9.41,10.86,15.9,17.39,3.25,3.25,6.44,6.26,9.41,8.92s5.75,4.93,8.15,6.75a62.61,62.61,0,0,0,5.89,4c1.45.85,2.31,1.21,2.29,1.27a3.85,3.85,0,0,1-.64-.25,15.27,15.27,0,0,1-1.75-.85,53.25,53.25,0,0,1-6-3.89c-2.44-1.79-5.24-4.06-8.25-6.69s-6.2-5.65-9.46-8.92c-6.5-6.54-12-12.85-15.81-17.52-1.93-2.33-3.43-4.25-4.45-5.6l-1.18-1.55A3.38,3.38,0,0,1,210.15,289.49Z"/><path class="cls-5" d="M227.34,331.28c-.09,0,.24-1.41.53-3.68A39.16,39.16,0,0,0,226,310c-.75-2.16-1.36-3.45-1.28-3.49a4,4,0,0,1,.51.87,24.79,24.79,0,0,1,1.12,2.5,34.43,34.43,0,0,1,1.85,17.79,25,25,0,0,1-.57,2.68A4.38,4.38,0,0,1,227.34,331.28Z"/><path class="cls-3" d="M668.65,128.9a12.67,12.67,0,0,1,6.63-19.81,16.48,16.48,0,0,1,1.86,11.46,10,10,0,0,1-8.49,8.35"/><path class="cls-5" d="M666.73,135.94a12.38,12.38,0,0,1,.57-3c.47-1.8,1.23-4.25,2.15-6.93s1.82-5.08,2.5-6.8a15.23,15.23,0,0,1,1.22-2.75,18.21,18.21,0,0,1-.87,2.87l-2.36,6.85c-.92,2.67-1.73,5.1-2.29,6.86S666.8,136,666.73,135.94Z"/><path class="cls-3" d="M624.58,203.31a24.5,24.5,0,0,1,26.21-30.75c1.39,7.56-1,15.32-4.95,21.9-4.71,7.75-14.07,11-21.26,8.85"/><path class="cls-5" d="M595,232.9a4.19,4.19,0,0,1,.43-.54l1.29-1.47c1.15-1.25,2.83-3,4.92-5.25,4.2-4.4,10.06-10.41,16.58-17s12.45-12.54,16.77-16.81l5.14-5c.58-.56,1.05-1,1.42-1.35a3.1,3.1,0,0,1,.52-.45,3.68,3.68,0,0,1-.45.52l-1.35,1.42-5,5.16L618.63,209c-6.5,6.57-12.38,12.53-16.68,16.89l-5,5.14-1.36,1.41A3.32,3.32,0,0,1,595,232.9Z"/><g class="cls-6"><path d="M624.58,203.31a24.5,24.5,0,0,1,26.21-30.75c1.39,7.56-1,15.32-4.95,21.9-4.71,7.75-14.07,11-21.26,8.85"/></g><path class="cls-3" d="M610.92,206.28a15,15,0,0,1-3.13-24.61c4,2.5,6.56,6.77,7.9,11.3,1.57,5.34-.81,10.94-4.77,13.31"/><g class="cls-6"><path d="M610.92,206.28a15,15,0,0,1-3.13-24.61c4,2.5,6.56,6.77,7.9,11.3,1.57,5.34-.81,10.94-4.77,13.31"/></g><path class="cls-5" d="M612.48,214.79a3.69,3.69,0,0,1-.3-.91c-.17-.6-.36-1.47-.57-2.55-.42-2.17-.86-5.18-1.26-8.52s-.68-6.37-.85-8.56a21.79,21.79,0,0,1-.14-3.57,27.09,27.09,0,0,1,.51,3.53c.27,2.33.62,5.28,1,8.54s.78,6.34,1.1,8.52S612.56,214.77,612.48,214.79Z"/><path class="cls-3" d="M423.67,322.18a23.66,23.66,0,0,1,38.92-7.09c-11.34,8.79-24.57,14.8-38.92,7.09"/><g class="cls-6"><path d="M423.67,322.18a23.66,23.66,0,0,1,38.92-7.09c-11.34,8.79-24.57,14.8-38.92,7.09"/></g><path class="cls-5" d="M417.26,325.69a4.61,4.61,0,0,1,.9-.7c.6-.43,1.49-1,2.63-1.66a49.64,49.64,0,0,1,9.34-4.19,50.26,50.26,0,0,1,10-2.19c1.3-.15,2.36-.22,3.09-.23a4.79,4.79,0,0,1,1.14,0c0,.09-1.61.19-4.18.56A57.66,57.66,0,0,0,421,323.65C418.67,324.88,417.31,325.76,417.26,325.69Z"/><path class="cls-3" d="M160.06,191.87a18.28,18.28,0,0,1,26,16c-11.05-.81-21.74-4.21-26-16"/><g class="cls-6"><path d="M160.06,191.87a18.28,18.28,0,0,1,26,16c-11.05-.81-21.74-4.21-26-16"/></g><path class="cls-5" d="M154.57,190.58a3.12,3.12,0,0,1,.88,0,23.66,23.66,0,0,1,2.37.39,37,37,0,0,1,7.54,2.41,37.64,37.64,0,0,1,6.88,3.93c.82.6,1.46,1.11,1.88,1.49s.65.59.63.62-1-.7-2.72-1.81a45.84,45.84,0,0,0-14.29-6.29C155.79,190.88,154.56,190.66,154.57,190.58Z"/><path class="cls-3" d="M518.39,309.92a16.34,16.34,0,0,1,20.88-17.63c-3.77,9.16-9.63,17.31-20.88,17.63"/><path class="cls-5" d="M515.76,314.23a12.22,12.22,0,0,1,1.25-2.65,33.44,33.44,0,0,1,4.15-5.75,33.08,33.08,0,0,1,5.26-4.75,11,11,0,0,1,2.51-1.53,28.87,28.87,0,0,1-2.28,1.82,41.48,41.48,0,0,0-9.32,10.39A24,24,0,0,1,515.76,314.23Z"/><path class="cls-3" d="M597.08,258a16.35,16.35,0,0,1,17.19-21.25c-2,9.71-6.2,18.82-17.19,21.25"/><g class="cls-6"><path d="M597.08,258a16.35,16.35,0,0,1,17.19-21.25c-2,9.71-6.2,18.82-17.19,21.25"/></g><path class="cls-5" d="M595.31,262.7a11.64,11.64,0,0,1,.73-2.84,33.17,33.17,0,0,1,3-6.43,32.56,32.56,0,0,1,4.28-5.65,11.22,11.22,0,0,1,2.17-2c0,.06-.73.85-1.9,2.22a43.48,43.48,0,0,0-4.11,5.67,44,44,0,0,0-3.09,6.29A23.7,23.7,0,0,1,595.31,262.7Z"/><path class="cls-3" d="M3.91,186.47a16.67,16.67,0,0,1,10.16-11.75,16.69,16.69,0,0,1,15.4,2.05c-6.6,7.4-14.84,13.13-25.56,9.7"/><path class="cls-5" d="M0,189.65a12.4,12.4,0,0,1,2.06-2.09,34.5,34.5,0,0,1,5.82-4,33.9,33.9,0,0,1,6.55-2.73,12,12,0,0,1,2.87-.61,27,27,0,0,1-2.76,1A41.51,41.51,0,0,0,2.3,187.85,25.16,25.16,0,0,1,0,189.65Z"/></g></g></svg>